<?xml version="1.0" encoding="UTF-8" standalone="no"?>
<!-- Created with Inkscape (http://www.inkscape.org/) -->

<svg
   xmlns:dc="http://purl.org/dc/elements/1.1/"
   xmlns:cc="http://creativecommons.org/ns#"
   xmlns:rdf="http://www.w3.org/1999/02/22-rdf-syntax-ns#"
   xmlns:svg="http://www.w3.org/2000/svg"
   xmlns="http://www.w3.org/2000/svg"
   xmlns:sodipodi="http://sodipodi.sourceforge.net/DTD/sodipodi-0.dtd"
   xmlns:inkscape="http://www.inkscape.org/namespaces/inkscape"
   width="57.998219mm"
   height="15.576199mm"
   viewBox="0 0 57.998219 15.576199"
   version="1.1"
   id="svg6223"
   inkscape:version="0.92.2 (unknown)"
   sodipodi:docname="logo.svg">
  <defs
     id="defs6217" />
  <sodipodi:namedview
     id="base"
     pagecolor="#ffffff"
     bordercolor="#666666"
     borderopacity="1.0"
     inkscape:pageopacity="0.0"
     inkscape:pageshadow="2"
     inkscape:zoom="2.8"
     inkscape:cx="108.08853"
     inkscape:cy="26.147596"
     inkscape:document-units="mm"
     inkscape:current-layer="layer1"
     showgrid="false"
     inkscape:window-width="1366"
     inkscape:window-height="701"
     inkscape:window-x="0"
     inkscape:window-y="24"
     inkscape:window-maximized="1" />
  <metadata
     id="metadata6220">
    <rdf:RDF>
      <cc:Work
         rdf:about="">
        <dc:format>image/svg+xml</dc:format>
        <dc:type
           rdf:resource="http://purl.org/dc/dcmitype/StillImage" />
        <dc:title></dc:title>
      </cc:Work>
    </rdf:RDF>
  </metadata>
  <g
     inkscape:label="Layer 1"
     inkscape:groupmode="layer"
     id="layer1"
     transform="translate(212.67708,-82.148035)">
    <path
       style="fill:#e9c31e;fill-opacity:1;stroke-width:0.0250001"
       d="m -209.9445,83.335916 a 0.53725601,0.53725601 0 0 0 -0.51146,0.375736 c 0,0 -0.29231,0.822416 -0.97327,1.153692 a 0.53725601,0.53725601 0 0 0 -0.30291,0.483324 v 4.800148 c 0,2.411507 1.46749,5.51446 5.11464,6.372622 a 0.53725601,0.53725601 0 0 0 0.12249,0.01492 h 0.0248 a 0.53725601,0.53725601 0 0 0 0.12248,-0.01492 c 3.64714,-0.858162 5.1163,-3.960852 5.1163,-6.372622 v -4.800148 a 0.53725601,0.53725601 0 0 0 -0.3029,-0.483324 c -0.68096,-0.331276 -0.97327,-1.153692 -0.97327,-1.153692 a 0.53725601,0.53725601 0 0 0 -0.51146,-0.375736 z"
       id="path8295"
       inkscape:connector-curvature="0" />
    <g
       id="g6737"
       transform="matrix(0.0250001,0,0,0.0250001,-211.43481,83.623596)">
      <path
         id="path6225"
         d="m 198.621,495 c 136,-32 188,-146 188,-234 0,-88 0,-192 0,-192 -37,-18 -50,-59 -50,-59 h -277 c 0,0 -13,41 -50,59 0,0 0,104 0,192 0,88 52,202 188,234 z"
         inkscape:connector-curvature="0"
         style="fill:#50b848" />
      <g
         id="g6427">
        <g
           id="g6231">
          <path
             id="path6227"
             d="m 287.269,244.063 c -11.984,-32.257 -36.304,-46.175 -36.304,-46.175 0.961,-16.137 22.096,-23.647 33.383,-20.206 11.288,3.441 22.774,21.569 29.659,34.622 6.886,13.051 23.993,12.972 23.993,12.972 l 0.027,0.075 c 0,0 -13.009,11.11 -9.702,25.492 3.307,14.381 6.443,35.61 0.139,45.587 -6.304,9.977 -27.213,18.087 -38.479,6.491 0,0 9.336,-26.42 -2.648,-58.677 z"
             inkscape:connector-curvature="0"
             style="fill:#e9c31e;stroke:#9a6104;stroke-width:1.5;stroke-linecap:round;stroke-linejoin:round" />
          <path
             id="path6229"
             d="m 286.92,243.064 c -3.543,-9.541 -12.123,-22.132 -12.123,-22.132 0,0 6.026,-10.724 15.561,-11.55 9.532,-0.826 19.502,8.195 24.137,14.277 4.635,6.082 11.971,5.733 11.971,5.733 l 0.137,0.373 c 0,0 -5.784,4.525 -5.324,12.158 0.463,7.632 -1.199,20.976 -8.959,26.573 -7.762,5.599 -19.328,1.411 -19.328,1.411 0,0 -1.722,-15.139 -5.265,-24.68 z"
             inkscape:connector-curvature="0"
             style="fill:#e9c31e;stroke:#9a6104;stroke-width:1.5;stroke-linecap:round;stroke-linejoin:round" />
        </g>
        <g
           id="g6237">
          <path
             id="path6233"
             d="m 198.595,183.099 c 34.411,0 55.927,17.951 55.927,17.951 14.792,-6.521 14.473,-28.946 7.315,-38.33 -7.158,-9.384 -28.15,-13.837 -42.783,-15.746 -14.633,-1.909 -20.517,-17.972 -20.517,-17.972 h -0.079 c 0,0 -5.884,16.063 -20.517,17.972 -14.633,1.909 -35.626,6.362 -42.783,15.746 -7.157,9.384 -7.477,31.809 7.315,38.33 0,0 21.516,-17.951 55.927,-17.951 z"
             inkscape:connector-curvature="0"
             style="fill:#e9c31e;stroke:#9a6104;stroke-width:1.5;stroke-linecap:round;stroke-linejoin:round" />
          <path
             id="path6235"
             d="m 199.65,183.078 c 10.179,0 24.97,3.658 24.97,3.658 0,0 7.953,-9.383 5.408,-18.608 -2.545,-9.225 -14.474,-15.428 -21.789,-17.654 -7.315,-2.226 -9.543,-9.225 -9.543,-9.225 h -0.397 c 0,0 -2.228,6.998 -9.543,9.225 -7.315,2.227 -19.244,8.43 -21.789,17.654 -2.545,9.224 5.408,18.608 5.408,18.608 0,0 14.791,-3.658 24.97,-3.658 z"
             inkscape:connector-curvature="0"
             style="fill:#e9c31e;stroke:#9a6104;stroke-width:1.5;stroke-linecap:round;stroke-linejoin:round" />
        </g>
        <g
           id="g6243">
          <path
             id="path6239"
             d="m 108.974,244.063 c 11.984,-32.257 36.304,-46.175 36.304,-46.175 -0.961,-16.137 -22.096,-23.647 -33.383,-20.206 -11.288,3.441 -22.774,21.569 -29.659,34.622 -6.886,13.052 -23.993,12.973 -23.993,12.973 l -0.027,0.075 c 0,0 13.009,11.11 9.702,25.492 -3.307,14.381 -6.443,35.61 -0.139,45.587 6.304,9.977 27.213,18.087 38.479,6.491 0,0 -9.336,-26.42 2.648,-58.677 z"
             inkscape:connector-curvature="0"
             style="fill:#e9c31e;stroke:#9a6104;stroke-width:1.5;stroke-linecap:round;stroke-linejoin:round" />
          <path
             id="path6241"
             d="m 109.322,243.064 c 3.543,-9.541 12.123,-22.132 12.123,-22.132 0,0 -6.026,-10.724 -15.561,-11.55 -9.532,-0.826 -19.502,8.195 -24.137,14.277 -4.635,6.082 -11.971,5.733 -11.971,5.733 l -0.137,0.373 c 0,0 5.784,4.525 5.324,12.158 -0.463,7.632 1.199,20.976 8.959,26.573 7.762,5.599 19.328,1.411 19.328,1.411 0,0 1.722,-15.139 5.265,-24.68 z"
             inkscape:connector-curvature="0"
             style="fill:#e9c31e;stroke:#9a6104;stroke-width:1.5;stroke-linecap:round;stroke-linejoin:round" />
        </g>
        <g
           id="g6249">
          <path
             id="path6245"
             d="m 142.347,353.945 c -27.65,-20.485 -34.253,-47.717 -34.253,-47.717 -15.768,-3.566 -28.86,14.645 -28.695,26.444 0.164,11.799 14.381,27.875 25.003,38.12 10.622,10.245 5.786,26.654 5.786,26.654 l 0.064,0.048 c 0,0 14.291,-9.404 27.184,-2.228 12.894,7.177 32.413,16.096 43.75,12.815 11.336,-3.279 24.942,-21.106 16.938,-35.153 0,0 -27.974,1.617 -55.622,-18.868 z"
             inkscape:connector-curvature="0"
             style="fill:#e9c31e;stroke:#9a6104;stroke-width:1.5;stroke-linecap:round;stroke-linejoin:round" />
          <path
             id="path6247"
             d="m 141.484,353.333 c -8.179,-6.058 -17.886,-17.802 -17.886,-17.802 0,0 -11.977,2.806 -15.423,11.732 -3.445,8.927 2.445,21.013 6.997,27.156 4.553,6.144 2.177,13.093 2.177,13.093 l 0.32,0.235 c 0,0 5.956,-4.297 13.16,-1.731 7.201,2.567 20.48,4.684 28.017,-1.213 7.536,-5.897 6.731,-18.173 6.731,-18.173 0,0 -14.063,-5.865 -22.241,-11.923 z"
             inkscape:connector-curvature="0"
             style="fill:#e9c31e;stroke:#9a6104;stroke-width:1.5;stroke-linecap:round;stroke-linejoin:round" />
        </g>
        <g
           id="g6255">
          <path
             id="path6251"
             d="m 253.896,353.945 c 27.65,-20.485 34.253,-47.717 34.253,-47.717 15.768,-3.566 28.86,14.645 28.695,26.444 -0.164,11.799 -14.381,27.875 -25.003,38.12 -10.622,10.245 -5.786,26.654 -5.786,26.654 l -0.064,0.048 c 0,0 -14.291,-9.404 -27.184,-2.228 -12.894,7.177 -32.413,16.096 -43.75,12.815 -11.336,-3.279 -24.942,-21.106 -16.938,-35.153 0,0 27.974,1.617 55.622,-18.868 z"
             inkscape:connector-curvature="0"
             style="fill:#e9c31e;stroke:#9a6104;stroke-width:1.5;stroke-linecap:round;stroke-linejoin:round" />
          <path
             id="path6253"
             d="m 254.758,353.333 c 8.179,-6.058 17.886,-17.802 17.886,-17.802 0,0 11.977,2.806 15.423,11.732 3.445,8.927 -2.445,21.013 -6.997,27.156 -4.553,6.144 -2.177,13.093 -2.177,13.093 l -0.32,0.235 c 0,0 -5.956,-4.297 -13.16,-1.731 -7.201,2.567 -20.48,4.684 -28.017,-1.213 -7.536,-5.897 -6.731,-18.173 -6.731,-18.173 0,0 14.063,-5.865 22.241,-11.923 z"
             inkscape:connector-curvature="0"
             style="fill:#e9c31e;stroke:#9a6104;stroke-width:1.5;stroke-linecap:round;stroke-linejoin:round" />
        </g>
        <g
           id="g6425">
          <g
             id="g6339">
            <g
               id="g6299">
              <g
                 id="g6261">
                <circle
                   id="circle6257"
                   r="13.793"
                   cy="183.25999"
                   cx="184.608"
                   style="fill:#e9c31e;stroke:#9a6104;stroke-width:1.5;stroke-linecap:round;stroke-linejoin:round" />
                <circle
                   id="circle6259"
                   r="8.099"
                   cy="183.25999"
                   cx="184.608"
                   style="fill:#e9c31e;stroke:#9a6104;stroke-width:1.5;stroke-linecap:round;stroke-linejoin:round" />
              </g>
              <g
                 id="g6267">
                <circle
                   id="circle6263"
                   r="13.793"
                   cy="189.51601"
                   cx="161.967"
                   style="fill:#e9c31e;stroke:#9a6104;stroke-width:1.5;stroke-linecap:round;stroke-linejoin:round" />
                <circle
                   id="circle6265"
                   r="8.099"
                   cy="189.51601"
                   cx="161.967"
                   style="fill:#e9c31e;stroke:#9a6104;stroke-width:1.5;stroke-linecap:round;stroke-linejoin:round" />
              </g>
              <g
                 id="g6273">
                <circle
                   id="circle6269"
                   r="13.793"
                   cy="200.241"
                   cx="142.304"
                   style="fill:#e9c31e;stroke:#9a6104;stroke-width:1.5;stroke-linecap:round;stroke-linejoin:round" />
                <circle
                   id="circle6271"
                   r="8.099"
                   cy="200.241"
                   cx="142.304"
                   style="fill:#e9c31e;stroke:#9a6104;stroke-width:1.5;stroke-linecap:round;stroke-linejoin:round" />
              </g>
              <g
                 id="g6279">
                <circle
                   id="circle6275"
                   r="13.793"
                   cy="215.13699"
                   cx="127.109"
                   style="fill:#e9c31e;stroke:#9a6104;stroke-width:1.5;stroke-linecap:round;stroke-linejoin:round" />
                <circle
                   id="circle6277"
                   r="8.099"
                   cy="215.13699"
                   cx="127.109"
                   style="fill:#e9c31e;stroke:#9a6104;stroke-width:1.5;stroke-linecap:round;stroke-linejoin:round" />
              </g>
              <g
                 id="g6285">
                <circle
                   id="circle6281"
                   r="13.793"
                   cy="234.20399"
                   cx="114.597"
                   style="fill:#e9c31e;stroke:#9a6104;stroke-width:1.5;stroke-linecap:round;stroke-linejoin:round" />
                <circle
                   id="circle6283"
                   r="8.099"
                   cy="234.20399"
                   cx="114.597"
                   style="fill:#e9c31e;stroke:#9a6104;stroke-width:1.5;stroke-linecap:round;stroke-linejoin:round" />
              </g>
              <g
                 id="g6291">
                <circle
                   id="circle6287"
                   r="13.793"
                   cy="254.463"
                   cx="106.554"
                   style="fill:#e9c31e;stroke:#9a6104;stroke-width:1.5;stroke-linecap:round;stroke-linejoin:round" />
                <circle
                   id="circle6289"
                   r="8.099"
                   cy="254.463"
                   cx="106.554"
                   style="fill:#e9c31e;stroke:#9a6104;stroke-width:1.5;stroke-linecap:round;stroke-linejoin:round" />
              </g>
              <g
                 id="g6297">
                <circle
                   id="circle6293"
                   r="13.793"
                   cy="277.10501"
                   cx="103.872"
                   style="fill:#e9c31e;stroke:#9a6104;stroke-width:1.5;stroke-linecap:round;stroke-linejoin:round" />
                <circle
                   id="circle6295"
                   r="8.099"
                   cy="277.10501"
                   cx="103.872"
                   style="fill:#e9c31e;stroke:#9a6104;stroke-width:1.5;stroke-linecap:round;stroke-linejoin:round" />
              </g>
            </g>
            <g
               id="g6337">
              <g
                 id="g6305">
                <circle
                   id="circle6301"
                   r="13.792"
                   cy="299.478"
                   cx="105.926"
                   style="fill:#e9c31e;stroke:#9a6104;stroke-width:1.5;stroke-linecap:round;stroke-linejoin:round" />
                <circle
                   id="circle6303"
                   r="8.099"
                   cy="299.479"
                   cx="105.927"
                   style="fill:#e9c31e;stroke:#9a6104;stroke-width:1.5;stroke-linecap:round;stroke-linejoin:round" />
              </g>
              <g
                 id="g6311">
                <circle
                   id="circle6307"
                   r="13.793"
                   cy="321.496"
                   cx="114.113"
                   style="fill:#e9c31e;stroke:#9a6104;stroke-width:1.5;stroke-linecap:round;stroke-linejoin:round" />
                <circle
                   id="circle6309"
                   r="8.099"
                   cy="321.496"
                   cx="114.114"
                   style="fill:#e9c31e;stroke:#9a6104;stroke-width:1.5;stroke-linecap:round;stroke-linejoin:round" />
              </g>
              <g
                 id="g6317">
                <circle
                   id="circle6313"
                   r="13.793"
                   cy="340.16"
                   cx="126.495"
                   style="fill:#e9c31e;stroke:#9a6104;stroke-width:1.5;stroke-linecap:round;stroke-linejoin:round" />
                <circle
                   id="circle6315"
                   r="8.099"
                   cy="340.16"
                   cx="126.495"
                   style="fill:#e9c31e;stroke:#9a6104;stroke-width:1.5;stroke-linecap:round;stroke-linejoin:round" />
              </g>
              <g
                 id="g6323">
                <circle
                   id="circle6319"
                   r="13.792"
                   cy="354.01199"
                   cx="142.647"
                   style="fill:#e9c31e;stroke:#9a6104;stroke-width:1.5;stroke-linecap:round;stroke-linejoin:round" />
                <circle
                   id="circle6321"
                   r="8.099"
                   cy="354.01199"
                   cx="142.647"
                   style="fill:#e9c31e;stroke:#9a6104;stroke-width:1.5;stroke-linecap:round;stroke-linejoin:round" />
              </g>
              <g
                 id="g6329">
                <circle
                   id="circle6325"
                   r="13.792"
                   cy="364.83301"
                   cx="162.722"
                   style="fill:#e9c31e;stroke:#9a6104;stroke-width:1.5;stroke-linecap:round;stroke-linejoin:round" />
                <circle
                   id="circle6327"
                   r="8.099"
                   cy="364.83301"
                   cx="162.72301"
                   style="fill:#e9c31e;stroke:#9a6104;stroke-width:1.5;stroke-linecap:round;stroke-linejoin:round" />
              </g>
              <g
                 id="g6335">
                <circle
                   id="circle6331"
                   r="13.793"
                   cy="371.099"
                   cx="183.60001"
                   style="fill:#e9c31e;stroke:#9a6104;stroke-width:1.5;stroke-linecap:round;stroke-linejoin:round" />
                <circle
                   id="circle6333"
                   r="8.099"
                   cy="371.099"
                   cx="183.60001"
                   style="fill:#e9c31e;stroke:#9a6104;stroke-width:1.5;stroke-linecap:round;stroke-linejoin:round" />
              </g>
            </g>
          </g>
          <g
             id="g6423">
            <g
               id="g6383">
              <g
                 id="g6345">
                <circle
                   id="circle6341"
                   r="13.793"
                   cy="371.10001"
                   cx="212.01801"
                   style="fill:#e9c31e;stroke:#9a6104;stroke-width:1.5;stroke-linecap:round;stroke-linejoin:round" />
                <circle
                   id="circle6343"
                   r="8.099"
                   cy="371.10001"
                   cx="212.01801"
                   style="fill:#e9c31e;stroke:#9a6104;stroke-width:1.5;stroke-linecap:round;stroke-linejoin:round" />
              </g>
              <g
                 id="g6351">
                <circle
                   id="circle6347"
                   r="13.793"
                   cy="364.84399"
                   cx="234.659"
                   style="fill:#e9c31e;stroke:#9a6104;stroke-width:1.5;stroke-linecap:round;stroke-linejoin:round" />
                <circle
                   id="circle6349"
                   r="8.099"
                   cy="364.84399"
                   cx="234.659"
                   style="fill:#e9c31e;stroke:#9a6104;stroke-width:1.5;stroke-linecap:round;stroke-linejoin:round" />
              </g>
              <g
                 id="g6357">
                <circle
                   id="circle6353"
                   r="13.793"
                   cy="354.11801"
                   cx="254.32201"
                   style="fill:#e9c31e;stroke:#9a6104;stroke-width:1.5;stroke-linecap:round;stroke-linejoin:round" />
                <circle
                   id="circle6355"
                   r="8.099"
                   cy="354.11801"
                   cx="254.32201"
                   style="fill:#e9c31e;stroke:#9a6104;stroke-width:1.5;stroke-linecap:round;stroke-linejoin:round" />
              </g>
              <g
                 id="g6363">
                <circle
                   id="circle6359"
                   r="13.793"
                   cy="339.22299"
                   cx="269.517"
                   style="fill:#e9c31e;stroke:#9a6104;stroke-width:1.5;stroke-linecap:round;stroke-linejoin:round" />
                <circle
                   id="circle6361"
                   r="8.099"
                   cy="339.22299"
                   cx="269.517"
                   style="fill:#e9c31e;stroke:#9a6104;stroke-width:1.5;stroke-linecap:round;stroke-linejoin:round" />
              </g>
              <g
                 id="g6369">
                <circle
                   id="circle6365"
                   r="13.793"
                   cy="320.155"
                   cx="282.02899"
                   style="fill:#e9c31e;stroke:#9a6104;stroke-width:1.5;stroke-linecap:round;stroke-linejoin:round" />
                <circle
                   id="circle6367"
                   r="8.099"
                   cy="320.155"
                   cx="282.02899"
                   style="fill:#e9c31e;stroke:#9a6104;stroke-width:1.5;stroke-linecap:round;stroke-linejoin:round" />
              </g>
              <g
                 id="g6375">
                <circle
                   id="circle6371"
                   r="13.793"
                   cy="299.896"
                   cx="290.07199"
                   style="fill:#e9c31e;stroke:#9a6104;stroke-width:1.5;stroke-linecap:round;stroke-linejoin:round" />
                <circle
                   id="circle6373"
                   r="8.099"
                   cy="299.896"
                   cx="290.07199"
                   style="fill:#e9c31e;stroke:#9a6104;stroke-width:1.5;stroke-linecap:round;stroke-linejoin:round" />
              </g>
              <g
                 id="g6381">
                <circle
                   id="circle6377"
                   r="13.793"
                   cy="277.254"
                   cx="292.754"
                   style="fill:#e9c31e;stroke:#9a6104;stroke-width:1.5;stroke-linecap:round;stroke-linejoin:round" />
                <circle
                   id="circle6379"
                   r="8.099"
                   cy="277.254"
                   cx="292.754"
                   style="fill:#e9c31e;stroke:#9a6104;stroke-width:1.5;stroke-linecap:round;stroke-linejoin:round" />
              </g>
            </g>
            <g
               id="g6421">
              <g
                 id="g6389">
                <circle
                   id="circle6385"
                   r="13.792"
                   cy="254.882"
                   cx="290.70001"
                   style="fill:#e9c31e;stroke:#9a6104;stroke-width:1.5;stroke-linecap:round;stroke-linejoin:round" />
                <circle
                   id="circle6387"
                   r="8.099"
                   cy="254.881"
                   cx="290.69901"
                   style="fill:#e9c31e;stroke:#9a6104;stroke-width:1.5;stroke-linecap:round;stroke-linejoin:round" />
              </g>
              <g
                 id="g6395">
                <circle
                   id="circle6391"
                   r="13.793"
                   cy="232.864"
                   cx="282.513"
                   style="fill:#e9c31e;stroke:#9a6104;stroke-width:1.5;stroke-linecap:round;stroke-linejoin:round" />
                <circle
                   id="circle6393"
                   r="8.099"
                   cy="232.864"
                   cx="282.51199"
                   style="fill:#e9c31e;stroke:#9a6104;stroke-width:1.5;stroke-linecap:round;stroke-linejoin:round" />
              </g>
              <g
                 id="g6401">
                <circle
                   id="circle6397"
                   r="13.793"
                   cy="214.2"
                   cx="270.13101"
                   style="fill:#e9c31e;stroke:#9a6104;stroke-width:1.5;stroke-linecap:round;stroke-linejoin:round" />
                <circle
                   id="circle6399"
                   r="8.099"
                   cy="214.2"
                   cx="270.13101"
                   style="fill:#e9c31e;stroke:#9a6104;stroke-width:1.5;stroke-linecap:round;stroke-linejoin:round" />
              </g>
              <g
                 id="g6407">
                <circle
                   id="circle6403"
                   r="13.792"
                   cy="200.34801"
                   cx="253.979"
                   style="fill:#e9c31e;stroke:#9a6104;stroke-width:1.5;stroke-linecap:round;stroke-linejoin:round" />
                <circle
                   id="circle6405"
                   r="8.099"
                   cy="200.34801"
                   cx="253.979"
                   style="fill:#e9c31e;stroke:#9a6104;stroke-width:1.5;stroke-linecap:round;stroke-linejoin:round" />
              </g>
              <g
                 id="g6413">
                <circle
                   id="circle6409"
                   r="13.792"
                   cy="189.526"
                   cx="233.90401"
                   style="fill:#e9c31e;stroke:#9a6104;stroke-width:1.5;stroke-linecap:round;stroke-linejoin:round" />
                <circle
                   id="circle6411"
                   r="8.099"
                   cy="189.526"
                   cx="233.903"
                   style="fill:#e9c31e;stroke:#9a6104;stroke-width:1.5;stroke-linecap:round;stroke-linejoin:round" />
              </g>
              <g
                 id="g6419">
                <circle
                   id="circle6415"
                   r="13.793"
                   cy="183.261"
                   cx="213.026"
                   style="fill:#e9c31e;stroke:#9a6104;stroke-width:1.5;stroke-linecap:round;stroke-linejoin:round" />
                <circle
                   id="circle6417"
                   r="8.099"
                   cy="183.261"
                   cx="213.026"
                   style="fill:#e9c31e;stroke:#9a6104;stroke-width:1.5;stroke-linecap:round;stroke-linejoin:round" />
              </g>
            </g>
          </g>
        </g>
      </g>
      <path
         id="path6429"
         d="m 354.653,88.717 c 12.736,0 15.425,-2.547 15.425,-8.208 0,-5.661 -6.651,-9.481 -6.651,-9.481 1.84,1.698 1.698,4.528 -0.707,6.509 -2.405,1.981 -8.633,-1.415 -8.633,-1.415 0,0 5.236,-0.708 5.236,-6.227 0,-5.519 -4.812,-7.217 -4.812,-7.217 0,0 0.566,0.99 0.707,3.396 0.141,2.406 -0.99,5.094 -3.679,5.094 -2.689,0 -4.812,-3.538 -4.812,-3.538 0,0 2.405,0.566 3.396,-0.708 0.991,-1.274 1.415,-4.387 -0.142,-7.642 -1.557,-3.255 -5.66,-2.972 -5.66,-2.972 0,0 0.707,0.708 0.849,2.547 0.142,1.839 -1.84,4.104 -4.953,2.264 -3.113,-1.84 -1.132,-8.916 -2.264,-11.746 -1.132,-2.83 -6.227,-3.538 -6.227,-3.538 0,0 1.273,3.254 0.283,4.67 -0.99,1.416 -4.387,0.708 -6.085,-1.981 -1.698,-2.689 2.547,-5.66 -0.283,-9.764 -2.83,-4.104 -7.217,-3.962 -7.217,-3.962 0,0 0.707,-0.283 2.264,2.123 1.557,2.406 -0.849,6.51 -3.962,3.962 -3.113,-2.548 -15.283,-15.425 -15.283,-15.425 0,0 0.565,-1.839 -0.85,-6.509 -1.415,-4.67 -9.34,-4.245 -9.34,-4.245 0,0 2.123,1.415 2.973,4.387 0.85,2.972 -1.84,3.56 -1.84,3.56 h -27.453 c 0,0 1.841,-1.581 -0.424,-4.552 -2.265,-2.971 -7.218,-2.83 -7.218,-2.83 0,0 2.345,2.364 2.379,4.386 0.026,1.511 -1.678,2.996 -4.219,2.996 -5.943,0 -22.075,0 -22.075,0 0,0 1.839,-2.854 -0.425,-4.977 -2.264,-2.123 -8.915,-2.406 -8.915,-2.406 0,0 3.962,3.396 2.83,5.377 -1.132,1.981 -3.396,2.005 -3.396,2.005 H 203.8 c 0,0 -1.557,-2.571 -2.972,-2.996 -1.415,-0.425 -2.688,-3.538 -2.688,-3.538 h -0.04 c 0,0 -1.273,3.113 -2.688,3.538 -1.415,0.425 -2.972,2.996 -2.972,2.996 h -19.67 c 0,0 -2.265,-0.024 -3.396,-2.005 -1.131,-1.981 2.83,-5.377 2.83,-5.377 0,0 -6.651,0.283 -8.915,2.406 -2.264,2.123 -0.425,4.977 -0.425,4.977 0,0 -16.132,0 -22.075,0 -2.541,0 -4.245,-1.485 -4.219,-2.996 0.034,-2.022 2.379,-4.386 2.379,-4.386 0,0 -4.953,-0.142 -7.218,2.83 -2.265,2.972 -0.424,4.552 -0.424,4.552 h -27.453 c 0,0 -2.689,-0.588 -1.84,-3.56 0.849,-2.972 2.973,-4.387 2.973,-4.387 0,0 -7.925,-0.425 -9.34,4.245 -1.415,4.67 -0.85,6.509 -0.85,6.509 0,0 -12.17,12.877 -15.283,15.425 -3.113,2.548 -5.519,-1.557 -3.962,-3.962 1.557,-2.405 2.264,-2.123 2.264,-2.123 0,0 -4.387,-0.142 -7.217,3.962 -2.83,4.104 1.415,7.075 -0.283,9.764 -1.698,2.689 -5.095,3.397 -6.085,1.981 -0.99,-1.416 0.283,-4.67 0.283,-4.67 0,0 -5.095,0.708 -6.227,3.538 -1.132,2.83 0.85,9.906 -2.264,11.746 -3.114,1.84 -5.095,-0.424 -4.953,-2.264 0.142,-1.84 0.849,-2.547 0.849,-2.547 0,0 -4.104,-0.283 -5.66,2.972 -1.556,3.255 -1.133,6.368 -0.142,7.642 0.991,1.274 3.396,0.708 3.396,0.708 0,0 -2.123,3.538 -4.812,3.538 -2.689,0 -3.819,-2.688 -3.679,-5.094 0.14,-2.406 0.707,-3.396 0.707,-3.396 0,0 -4.812,1.698 -4.812,7.217 0,5.519 5.236,6.227 5.236,6.227 0,0 -6.228,3.396 -8.633,1.415 -2.405,-1.981 -2.547,-4.811 -0.707,-6.509 0,0 -6.651,3.82 -6.651,9.481 0,5.661 2.688,8.208 15.425,8.208 z"
         inkscape:connector-curvature="0"
         style="fill:#ffffff" />
      <g
         id="g6533">
        <rect
           id="rect6431"
           height="5.7059999"
           width="57.756001"
           y="40.754002"
           x="169.244"
           style="fill:#f15b5b" />
        <rect
           id="rect6433"
           height="4.4990001"
           width="51.668999"
           y="33.556"
           x="172.287"
           style="fill:#f15b5b" />
        <g
           id="g6463">
          <g
             id="g6447">
            <rect
               id="rect6435"
               height="5.7059999"
               width="39.161999"
               y="40.754002"
               x="84.527"
               style="fill:#f15b5b" />
            <rect
               id="rect6437"
               height="5.7059999"
               width="40.643002"
               y="40.754002"
               x="125.828"
               style="fill:#f15b5b" />
            <rect
               id="rect6439"
               height="4.4990001"
               width="39.161999"
               y="33.556"
               x="90.982002"
               style="fill:#f15b5b" />
            <rect
               id="rect6441"
               height="4.4990001"
               width="36.529999"
               y="33.556"
               x="132.448"
               style="fill:#f15b5b" />
            <rect
               id="rect6443"
               height="5.1570001"
               width="38.504002"
               y="26.535"
               x="97.893997"
               style="fill:#f15b5b" />
            <rect
               id="rect6445"
               height="5.1570001"
               width="35.226002"
               y="26.535"
               x="139.19501"
               style="fill:#f15b5b" />
          </g>
          <g
             id="g6461">
            <rect
               id="rect6449"
               height="5.7059999"
               width="39.161999"
               y="40.754002"
               x="272.55499"
               style="fill:#f15b5b" />
            <rect
               id="rect6451"
               height="5.7059999"
               width="40.643002"
               y="40.754002"
               x="229.77299"
               style="fill:#f15b5b" />
            <rect
               id="rect6453"
               height="4.4990001"
               width="39.161999"
               y="33.556"
               x="266.10001"
               style="fill:#f15b5b" />
            <rect
               id="rect6455"
               height="4.4990001"
               width="36.529999"
               y="33.556"
               x="227.26601"
               style="fill:#f15b5b" />
            <rect
               id="rect6457"
               height="5.1570001"
               width="38.504002"
               y="26.535"
               x="259.84698"
               style="fill:#f15b5b" />
            <rect
               id="rect6459"
               height="5.1570001"
               width="35.226002"
               y="26.535"
               x="221.823"
               style="fill:#f15b5b" />
          </g>
        </g>
        <rect
           id="rect6465"
           height="5.1570001"
           width="40.807999"
           y="26.535"
           x="177.718"
           style="fill:#f15b5b" />
        <g
           id="g6531">
          <g
             id="g6497">
            <rect
               id="rect6467"
               height="6.3060002"
               width="43.886002"
               y="77.157997"
               x="45.470001"
               style="fill:#f15b5b" />
            <rect
               id="rect6469"
               height="6.3060002"
               width="49.028999"
               y="77.157997"
               x="92.080002"
               style="fill:#f15b5b" />
            <rect
               id="rect6471"
               height="6.3060002"
               width="52.375"
               y="77.157997"
               x="143.998"
               style="fill:#f15b5b" />
            <rect
               id="rect6473"
               height="5.493"
               width="45.479"
               y="68.816002"
               x="54.493"
               style="fill:#f15b5b" />
            <rect
               id="rect6475"
               height="5.493"
               width="45.479"
               y="68.816002"
               x="102.649"
               style="fill:#f15b5b" />
            <rect
               id="rect6477"
               height="5.493"
               width="45.400002"
               y="68.816002"
               x="150.97301"
               style="fill:#f15b5b" />
            <rect
               id="rect6479"
               height="4.4759998"
               width="42.041"
               y="61.695999"
               x="64.132004"
               style="fill:#f15b5b" />
            <rect
               id="rect6481"
               height="4.4759998"
               width="43.534"
               y="61.695999"
               x="108.752"
               style="fill:#f15b5b" />
            <rect
               id="rect6483"
               height="4.4759998"
               width="41.841"
               y="61.695999"
               x="154.532"
               style="fill:#f15b5b" />
            <rect
               id="rect6485"
               height="4.0599999"
               width="43.292"
               y="55.397999"
               x="69.853996"
               style="fill:#f15b5b" />
            <rect
               id="rect6487"
               height="4.0599999"
               width="43.292"
               y="55.397999"
               x="115.469"
               style="fill:#f15b5b" />
            <rect
               id="rect6489"
               height="4.0599999"
               width="34.958"
               y="55.397999"
               x="161.41499"
               style="fill:#f15b5b" />
            <rect
               id="rect6491"
               height="4.0599999"
               width="41.786999"
               y="49.146"
               x="76.998001"
               style="fill:#f15b5b" />
            <rect
               id="rect6493"
               height="4.0599999"
               width="40.293999"
               y="49.146"
               x="121.617"
               style="fill:#f15b5b" />
            <rect
               id="rect6495"
               height="4.0599999"
               width="30.634001"
               y="49.146"
               x="165.739"
               style="fill:#f15b5b" />
          </g>
          <g
             id="g6529">
            <rect
               id="rect6499"
               height="6.3060002"
               width="43.886002"
               y="77.157997"
               x="306.888"
               style="fill:#f15b5b" />
            <rect
               id="rect6501"
               height="6.3060002"
               width="49.028"
               y="77.157997"
               x="255.134"
               style="fill:#f15b5b" />
            <rect
               id="rect6503"
               height="6.3060002"
               width="52.374001"
               y="77.157997"
               x="199.87"
               style="fill:#f15b5b" />
            <rect
               id="rect6505"
               height="5.493"
               width="45.479"
               y="68.816002"
               x="296.271"
               style="fill:#f15b5b" />
            <rect
               id="rect6507"
               height="5.493"
               width="45.479"
               y="68.816002"
               x="248.114"
               style="fill:#f15b5b" />
            <rect
               id="rect6509"
               height="5.493"
               width="45.400002"
               y="68.816002"
               x="199.87"
               style="fill:#f15b5b" />
            <rect
               id="rect6511"
               height="4.4759998"
               width="42.041"
               y="61.695999"
               x="290.07001"
               style="fill:#f15b5b" />
            <rect
               id="rect6513"
               height="4.4759998"
               width="43.534"
               y="61.695999"
               x="243.957"
               style="fill:#f15b5b" />
            <rect
               id="rect6515"
               height="4.4759998"
               width="41.841"
               y="61.695999"
               x="199.87"
               style="fill:#f15b5b" />
            <rect
               id="rect6517"
               height="4.0599999"
               width="43.292"
               y="55.397999"
               x="283.09799"
               style="fill:#f15b5b" />
            <rect
               id="rect6519"
               height="4.0599999"
               width="43.292"
               y="55.397999"
               x="237.48199"
               style="fill:#f15b5b" />
            <rect
               id="rect6521"
               height="4.0599999"
               width="34.958"
               y="55.397999"
               x="199.87"
               style="fill:#f15b5b" />
            <rect
               id="rect6523"
               height="4.0599999"
               width="41.786999"
               y="49.146"
               x="277.45801"
               style="fill:#f15b5b" />
            <rect
               id="rect6525"
               height="4.0599999"
               width="40.293999"
               y="49.146"
               x="234.332"
               style="fill:#f15b5b" />
            <rect
               id="rect6527"
               height="4.0599999"
               width="30.634001"
               y="49.146"
               x="199.87"
               style="fill:#f15b5b" />
          </g>
        </g>
      </g>
      <circle
         id="circle6535"
         r="94.314003"
         cy="277.436"
         cx="198.12199"
         style="fill:#ffffff" />
      <path
         id="path6537"
         d="m 104.908,291.821 h 186.041 c 0,0 2.491,-18.033 0.591,-24.305 0,0 -19.765,0.57 -37.059,-6.842 -17.294,-7.412 -37.817,-17.293 -42.379,-20.524 -4.562,-3.231 -4.371,-5.512 -8.362,-3.991 -3.991,1.521 -5.701,5.321 -8.552,4.371 -2.851,-0.95 -4.75,-4.181 -8.361,-3.611 -3.611,0.57 -5.891,5.322 -18.244,9.692 -12.353,4.37 -24.705,9.883 -30.786,11.973 -6.081,2.09 -21.285,10.072 -25.086,10.452 -3.801,0.38 -8.741,1.33 -8.741,1.33 0,0 -0.193,16.535 0.938,21.455 z"
         inkscape:connector-curvature="0"
         style="fill:#39bb9d" />
      <g
         id="g6543">
        <path
           id="path6539"
           d="m 180.563,243.312 c 0,0 3.553,-5.966 7.089,-5.966 3.536,0 4.604,4.125 8.986,3.499 4.382,-0.626 4.382,-4.788 8.617,-4.457 4.235,0.331 10.784,7.976 10.784,7.976 v -21.013 h -35.477 v 19.961 z"
           inkscape:connector-curvature="0"
           style="fill:#ffffff" />
        <path
           id="path6541"
           d="m 180.563,235.283 c 0,0 3.553,-5.966 7.089,-5.966 3.536,0 4.604,4.125 8.986,3.499 4.382,-0.626 4.382,-4.788 8.617,-4.457 4.235,0.331 10.784,7.976 10.784,7.976 v -12.984 h -35.477 v 11.932 z"
           inkscape:connector-curvature="0"
           style="fill:#ed1c24" />
      </g>
      <g
         id="g6551">
        <path
           id="path6545"
           d="m 171.103,207.498 h 7.782 v -8.688 c 0,-2.149 -1.742,-3.891 -3.891,-3.891 -2.149,0 -3.892,1.742 -3.892,3.891 v 8.688 z"
           inkscape:connector-curvature="0"
           style="fill:#ffffff;stroke:#000000;stroke-width:2;stroke-linecap:round;stroke-linejoin:round" />
        <path
           id="path6547"
           d="m 229.392,274.063 -3.343,-66.546 H 215.66 v 8.756 h -0.036 v -4.906 c 0,-2.149 -1.742,-3.891 -3.892,-3.891 -2.148,0 -3.891,1.742 -3.891,3.891 v 4.906 h -9.721 -9.72 v -4.906 c 0,-2.149 -1.742,-3.891 -3.891,-3.891 -2.149,0 -3.892,1.742 -3.892,3.891 v 4.906 h -0.036 v -8.756 h -10.389 l -3.343,66.546 h -62.957 c 0,0 -0.22,3.944 0.199,9.299 0.55,7.026 1.772,16.482 4.493,22.667 h 1.138 v -4.446 c 0,-4.602 4.039,-8.332 9.021,-8.332 h 9.23 c 4.983,0 9.022,3.73 9.022,8.332 v 4.446 h 9.43 v -4.446 c 0,-4.602 4.039,-8.332 9.021,-8.332 h 9.23 c 4.983,0 9.022,3.73 9.022,8.332 v 4.446 h 6.88 v -22.667 -9.299 -50.731 h 17.539 17.539 v 50.731 9.299 22.667 h 6.88 v -4.446 c 0,-4.602 4.039,-8.332 9.022,-8.332 h 9.23 c 4.982,0 9.021,3.73 9.021,8.332 v 4.446 h 9.43 v -4.446 c 0,-4.602 4.039,-8.332 9.022,-8.332 h 9.23 c 4.982,0 9.021,3.73 9.021,8.332 v 4.446 h 1.138 c 2.721,-6.185 3.943,-15.641 4.493,-22.667 0.419,-5.354 0.067,-9.299 0.067,-9.299 z"
           inkscape:connector-curvature="0"
           style="fill:#ffffff;stroke:#000000;stroke-width:2;stroke-linecap:round;stroke-linejoin:round" />
        <path
           id="path6549"
           d="m 217.357,207.498 h 7.782 v -8.688 c 0,-2.149 -1.742,-3.891 -3.892,-3.891 -2.148,0 -3.891,1.742 -3.891,3.891 v 8.688 z"
           inkscape:connector-curvature="0"
           style="fill:#ffffff;stroke:#000000;stroke-width:2;stroke-linecap:round;stroke-linejoin:round" />
      </g>
      <g
         id="g6641">
        <g
           id="g6595">
          <polygon
             id="polygon6553"
             points="180.582,274.063 166.851,274.063 170.193,207.517 180.582,207.517 "
             style="fill:#ffffff;stroke:#000000" />
          <g
             id="g6559">
            <path
               id="path6555"
               d="m 104.093,283.362 c 0.55,7.026 1.772,16.482 4.493,22.667 h 1.138 v -4.446 c 0,-4.602 4.039,-8.332 9.021,-8.332 h 9.23 c 4.983,0 9.022,3.73 9.022,8.332 v 4.446 h 9.43 v -4.446 c 0,-4.602 4.039,-8.332 9.021,-8.332 h 9.23 c 4.983,0 9.022,3.73 9.022,8.332 v 4.446 h 6.88 v -22.667 z"
               inkscape:connector-curvature="0"
               style="fill:#ffffff;stroke:#000000" />
            <path
               id="path6557"
               d="m 180.582,274.063 h -76.688 c 0,0 -0.22,3.944 0.199,9.299 h 76.489 z"
               inkscape:connector-curvature="0"
               style="fill:#ed1c24;stroke:#000000" />
          </g>
          <line
             id="line6561"
             y2="283.35199"
             x2="114.595"
             y1="273.974"
             x1="114.595"
             style="fill:none;stroke:#000000" />
          <line
             id="line6563"
             y2="283.35199"
             x2="127.148"
             y1="273.974"
             x1="127.148"
             style="fill:none;stroke:#000000" />
          <line
             id="line6565"
             y2="283.35199"
             x2="139.701"
             y1="273.974"
             x1="139.701"
             style="fill:none;stroke:#000000" />
          <line
             id="line6567"
             y2="283.35199"
             x2="152.255"
             y1="273.974"
             x1="152.255"
             style="fill:none;stroke:#000000" />
          <line
             id="line6569"
             y2="283.35199"
             x2="164.808"
             y1="273.974"
             x1="164.808"
             style="fill:none;stroke:#000000" />
          <path
             id="path6571"
             d="m 178.885,207.498 v -8.688 c 0,-2.149 -1.742,-3.891 -3.891,-3.891 -2.149,0 -3.892,1.742 -3.892,3.891 v 8.688 z"
             inkscape:connector-curvature="0"
             style="fill:#ffffff;stroke:#000000" />
          <line
             id="line6573"
             y2="200.995"
             x2="178.914"
             y1="200.995"
             x1="171.08299"
             style="fill:none;stroke:#000000" />
          <line
             id="line6575"
             y2="205.351"
             x2="178.914"
             y1="205.351"
             x1="171.08299"
             style="fill:none;stroke:#000000" />
          <line
             id="line6577"
             y2="209.985"
             x2="180.474"
             y1="209.985"
             x1="170.013"
             style="fill:none;stroke:#000000" />
          <line
             id="line6579"
             y2="222.84399"
             x2="180.474"
             y1="222.84399"
             x1="169.517"
             style="fill:none;stroke:#000000" />
          <line
             id="line6581"
             y2="233.67599"
             x2="180.474"
             y1="233.67599"
             x1="169.021"
             style="fill:none;stroke:#000000" />
          <line
             id="line6583"
             y2="244.55"
             x2="180.474"
             y1="244.55"
             x1="168.442"
             style="fill:none;stroke:#000000" />
          <line
             id="line6585"
             y2="255.383"
             x2="180.474"
             y1="255.383"
             x1="167.82201"
             style="fill:none;stroke:#000000" />
          <line
             id="line6587"
             y2="266.009"
             x2="180.474"
             y1="266.009"
             x1="167.284"
             style="fill:none;stroke:#000000" />
          <g
             id="g6593">
            <path
               id="path6589"
               d="m 188.4,216.273 v -4.906 c 0,-2.149 -1.742,-3.891 -3.891,-3.891 -2.149,0 -3.892,1.742 -3.892,3.891 v 4.906 z"
               inkscape:connector-curvature="0"
               style="fill:#ffffff;stroke:#000000" />
            <rect
               id="rect6591"
               height="7.059"
               width="17.542999"
               y="216.27299"
               x="180.578"
               style="fill:#ffffff;stroke:#000000" />
          </g>
        </g>
        <g
           id="g6639">
          <polygon
             id="polygon6597"
             points="215.66,274.063 229.392,274.063 226.049,207.517 215.66,207.517 "
             style="fill:#ffffff;stroke:#000000" />
          <g
             id="g6603">
            <path
               id="path6599"
               d="m 292.149,283.362 c -0.55,7.026 -1.772,16.482 -4.493,22.667 h -1.138 v -4.446 c 0,-4.602 -4.039,-8.332 -9.021,-8.332 h -9.23 c -4.983,0 -9.022,3.73 -9.022,8.332 v 4.446 h -9.43 v -4.446 c 0,-4.602 -4.039,-8.332 -9.021,-8.332 h -9.23 c -4.983,0 -9.022,3.73 -9.022,8.332 v 4.446 h -6.88 v -22.667 z"
               inkscape:connector-curvature="0"
               style="fill:#ffffff;stroke:#000000" />
            <path
               id="path6601"
               d="m 215.66,274.063 h 76.557 c 0,0 0.352,3.944 -0.067,9.299 h -76.49 z"
               inkscape:connector-curvature="0"
               style="fill:#ed1c24;stroke:#000000" />
          </g>
          <line
             id="line6605"
             y2="283.35199"
             x2="281.647"
             y1="273.974"
             x1="281.647"
             style="fill:none;stroke:#000000" />
          <line
             id="line6607"
             y2="283.35199"
             x2="269.09399"
             y1="273.974"
             x1="269.09399"
             style="fill:none;stroke:#000000" />
          <line
             id="line6609"
             y2="283.35199"
             x2="256.54099"
             y1="273.974"
             x1="256.54099"
             style="fill:none;stroke:#000000" />
          <line
             id="line6611"
             y2="283.35199"
             x2="243.987"
             y1="273.974"
             x1="243.987"
             style="fill:none;stroke:#000000" />
          <line
             id="line6613"
             y2="283.35199"
             x2="231.435"
             y1="273.974"
             x1="231.435"
             style="fill:none;stroke:#000000" />
          <path
             id="path6615"
             d="m 217.357,207.498 v -8.688 c 0,-2.149 1.742,-3.891 3.891,-3.891 2.149,0 3.892,1.742 3.892,3.891 v 8.688 z"
             inkscape:connector-curvature="0"
             style="fill:#ffffff;stroke:#000000" />
          <line
             id="line6617"
             y2="200.995"
             x2="217.328"
             y1="200.995"
             x1="225.159"
             style="fill:none;stroke:#000000" />
          <line
             id="line6619"
             y2="205.351"
             x2="217.328"
             y1="205.351"
             x1="225.159"
             style="fill:none;stroke:#000000" />
          <line
             id="line6621"
             y2="209.985"
             x2="215.769"
             y1="209.985"
             x1="226.229"
             style="fill:none;stroke:#000000" />
          <line
             id="line6623"
             y2="222.84399"
             x2="215.769"
             y1="222.84399"
             x1="226.726"
             style="fill:none;stroke:#000000" />
          <line
             id="line6625"
             y2="233.67599"
             x2="215.769"
             y1="233.67599"
             x1="227.222"
             style="fill:none;stroke:#000000" />
          <line
             id="line6627"
             y2="244.55"
             x2="215.769"
             y1="244.55"
             x1="227.8"
             style="fill:none;stroke:#000000" />
          <line
             id="line6629"
             y2="255.383"
             x2="215.769"
             y1="255.383"
             x1="228.42"
             style="fill:none;stroke:#000000" />
          <line
             id="line6631"
             y2="266.009"
             x2="215.769"
             y1="266.009"
             x1="228.95799"
             style="fill:none;stroke:#000000" />
          <g
             id="g6637">
            <path
               id="path6633"
               d="m 207.842,216.273 v -4.906 c 0,-2.149 1.742,-3.891 3.891,-3.891 2.149,0 3.892,1.742 3.892,3.891 v 4.906 z"
               inkscape:connector-curvature="0"
               style="fill:#ffffff;stroke:#000000" />
            <rect
               id="rect6635"
               height="7.059"
               width="17.542999"
               y="216.27299"
               x="198.121"
               style="fill:#ffffff;stroke:#000000" />
          </g>
        </g>
      </g>
      <g
         id="g6675">
        <path
           id="path6643"
           d="m 112.27,312.089 c 0,0 -1.741,-7.941 -0.109,-12.074 1.632,-4.133 6.743,-1.521 9.463,-1.087 0,0 5.329,0.652 7.723,0.108 2.394,-0.544 4.785,-0.436 5.438,1.196 0.653,1.632 0.762,6.635 0.762,6.635 l 2.883,2.883 c 0,0 -0.272,2.882 -1.687,4.188 -1.415,1.306 -1.305,2.827 -2.719,3.807 -1.414,0.98 -2.718,2.284 -1.631,5.765 1.087,3.481 0.978,5.656 -0.653,8.919 -1.631,3.263 -3.153,3.372 -4.785,3.154 -1.632,-0.218 -5.656,-4.243 -8.702,-9.572 -3.046,-5.329 -5.549,-10.549 -5.983,-13.922 z"
           inkscape:connector-curvature="0"
           style="fill:#5da9dd" />
        <path
           id="path6645"
           d="m 147.401,302.951 c -0.028,-0.343 0.327,-4.134 2.938,-5.438 2.611,-1.304 3.808,1.849 8.267,0 4.459,-1.849 9.572,-2.176 11.747,1.088 2.175,3.264 2.283,6.744 1.849,10.116 -0.434,3.372 -2.61,9.028 -5.765,11.421 -3.155,2.393 -4.894,3.153 -7.831,2.827 -2.937,-0.326 -5.113,0.219 -6.962,-2.827 -1.849,-3.046 -3.262,-6.309 -5.655,-6.2 -2.393,0.109 -5.003,0.217 -4.242,2.066 0.761,1.849 3.154,2.937 0,3.48 -3.154,0.543 -5.982,-1.304 -5.438,-2.501 0.544,-1.197 3.263,-3.589 3.263,-5.112 0,-1.523 0.761,-3.808 3.48,-3.916 2.719,-0.108 4.784,0.325 4.349,-5.004 z"
           inkscape:connector-curvature="0"
           style="fill:#5da9dd" />
        <path
           id="path6647"
           d="m 174.159,307.738 c 0,0 3.481,0.652 5.656,-0.218 2.175,-0.87 3.044,-1.305 3.371,0.762 0.327,2.067 -0.869,7.18 -2.827,7.94 -1.958,0.76 -3.373,1.957 -4.678,0.979 -1.305,-0.978 -3.48,-3.698 -2.937,-5.765 0.543,-2.067 0.437,-2.719 1.415,-3.698 z"
           inkscape:connector-curvature="0"
           style="fill:#5da9dd" />
        <path
           id="path6649"
           d="m 182.229,303.714 c -1.222,-1.667 -1.653,-6.199 -0.021,-7.613 1.632,-1.414 7.396,0.543 11.313,0.543 3.917,0 7.179,-1.413 8.919,-1.413 1.74,0 3.046,0.652 5.656,0.652 2.61,0 6.2,0.217 6.2,3.263 0,3.046 -2.067,4.896 -3.59,6.962 -1.523,2.066 -4.023,5.656 -2.937,8.375 1.086,2.719 4.786,6.962 3.154,7.614 -1.632,0.652 -3.48,-1.958 -7.723,-2.502 -4.243,-0.544 -8.483,1.631 -11.747,2.066 -3.264,0.435 -7.288,-0.762 -8.376,-2.502 -1.088,-1.74 0.327,-4.351 0.979,-7.723 0.652,-3.372 -0.631,-6.09 -1.827,-7.722 z"
           inkscape:connector-curvature="0"
           style="fill:#5da9dd" />
        <path
           id="path6651"
           d="m 211.031,307.956 c 0,0 3.046,-1.414 5.656,-0.218 2.61,1.196 5.004,3.808 5.112,6.853 0.108,3.045 -0.436,4.46 -3.046,4.786 -2.61,0.326 -6.525,-0.001 -8.049,-1.741 -1.524,-1.74 -2.284,-3.262 -1.632,-5.981 0.652,-2.719 0.654,-2.502 1.959,-3.699 z"
           inkscape:connector-curvature="0"
           style="fill:#5da9dd" />
        <path
           id="path6653"
           d="m 222.345,310.35 c -0.435,-1.522 -2.175,-1.739 -0.652,-2.937 1.523,-1.198 1.957,-1.089 1.849,-2.394 -0.108,-1.305 -1.739,-6.852 1.523,-7.069 3.262,-0.217 7.178,-0.108 10.768,-0.544 3.59,-0.436 10.333,-0.653 11.639,1.631 1.306,2.284 1.197,4.352 1.088,6.418 -0.109,2.066 -0.87,6.308 -1.74,7.613 -0.87,1.305 -5.222,4.135 -5.222,6.636 0,2.501 -4.998,-1.312 -6.417,0.326 -1.414,1.632 -4.568,5.438 -7.939,2.283 -3.371,-3.155 -3.698,-8.7 -4.134,-10.006 -0.436,-1.306 -0.763,-1.957 -0.763,-1.957 z"
           inkscape:connector-curvature="0"
           style="fill:#5da9dd" />
        <path
           id="path6655"
           d="m 259.651,305.781 c -0.089,-0.426 -0.652,-4.352 0.762,-6.2 1.414,-1.848 3.807,-3.916 7.505,-3.698 3.698,0.218 9.682,1.088 11.639,1.088 1.957,0 5.33,2.177 5.221,5.222 -0.109,3.045 0,8.267 -1.414,11.529 -1.414,3.262 -4.242,5.873 -5.982,6.417 -1.74,0.544 -2.72,1.306 -2.72,3.264 0,1.958 -0.326,4.568 -2.719,4.024 -2.393,-0.544 -2.502,-3.263 -5.438,-6.635 -2.936,-3.372 -7.614,-7.071 -7.614,-8.92 0,-1.849 1.304,-3.48 0.76,-6.091 z"
           inkscape:connector-curvature="0"
           style="fill:#5da9dd" />
        <path
           id="path6657"
           d="m 249.537,308.174 c 0.577,-0.659 5.546,-1.088 7.069,-0.326 1.523,0.762 2.828,4.785 1.414,7.505 -1.414,2.72 -0.435,4.242 -2.719,4.46 -2.284,0.218 -5.438,0.001 -6.2,-1.522 -0.762,-1.523 -1.959,-3.699 -1.306,-5.222 0.653,-1.523 0.981,-4.025 1.742,-4.895 z"
           inkscape:connector-curvature="0"
           style="fill:#5da9dd" />
        <path
           id="path6659"
           d="m 264.547,322.749 c 1.833,-0.698 7.07,4.35 7.07,7.831 0,3.481 -0.979,5.982 -3.59,5.33 -2.611,-0.652 -5.221,-3.697 -5.221,-5.873 0,-2.176 -0.543,-6.418 1.741,-7.288 z"
           inkscape:connector-curvature="0"
           style="fill:#5da9dd" />
        <path
           id="path6661"
           d="m 244.751,322.641 c 1.252,-1.252 10.006,-2.068 12.399,-1.197 2.393,0.871 6.525,13.271 5.765,17.839 -0.76,4.568 -7.396,11.964 -9.354,12.182 -1.958,0.218 -6.199,-0.108 -5.438,-3.807 0.761,-3.699 3.916,-8.594 0.218,-10.769 -3.698,-2.175 -6.853,-10.985 -3.59,-14.248 z"
           inkscape:connector-curvature="0"
           style="fill:#5da9dd" />
        <path
           id="path6663"
           d="m 134.46,323.075 c 1.346,-1.346 5.112,-3.589 9.354,-1.196 4.242,2.393 7.396,9.463 6.853,15.119 -0.543,5.656 -2.719,10.769 -5.547,11.747 -2.828,0.978 -11.748,-4.46 -13.488,-7.288 -1.74,-2.828 -2.283,-4.785 -0.217,-6.743 2.066,-1.958 3.806,-2.938 3.371,-6.2 -0.435,-3.262 -1.414,-4.351 -0.326,-5.439 z"
           inkscape:connector-curvature="0"
           style="fill:#5da9dd" />
        <path
           id="path6665"
           d="m 157.63,324.381 c 3.253,0.271 9.898,0.87 10.551,4.568 0.653,3.698 -6.853,10.659 -6.526,17.186 0.327,6.527 1.523,12.292 0,13.923 -1.523,1.631 -3.698,1.087 -5.656,0.217 -1.958,-0.87 -9.572,-5.766 -8.158,-10.551 1.414,-4.785 4.569,-7.504 4.025,-13.596 -0.544,-6.092 -1.415,-8.812 0.217,-10.116 1.632,-1.304 2.937,-1.848 5.547,-1.631 z"
           inkscape:connector-curvature="0"
           style="fill:#5da9dd" />
        <path
           id="path6667"
           d="m 176.229,318.506 c 1.702,-10e-4 8.157,1.524 10.877,6.637 2.72,5.113 -6.259,16.607 -5.003,24.473 1.178,7.378 1.413,15.771 -0.979,17.294 -2.392,1.523 -9.246,-0.108 -11.421,-3.154 -2.175,-3.046 -7.939,-10.333 -6.961,-17.621 0.978,-7.288 5.113,-12.29 6.744,-15.228 1.631,-2.938 1.739,-6.635 2.175,-8.593 0.436,-1.958 1.523,-3.807 4.568,-3.808 z"
           inkscape:connector-curvature="0"
           style="fill:#5da9dd" />
        <path
           id="path6669"
           d="m 202.769,321.008 c -3.32,-0.589 -11.094,3.916 -15.01,12.183 -3.916,8.267 -4.243,11.528 -3.481,19.034 0.762,7.506 4.351,15.664 10.007,17.513 5.656,1.849 11.965,-0.761 15.011,-8.267 3.046,-7.506 1.74,-13.271 -1.632,-19.035 -3.372,-5.764 -3.589,-6.636 -0.652,-11.639 2.937,-5.003 2.501,-8.593 -4.243,-9.789 z"
           inkscape:connector-curvature="0"
           style="fill:#5da9dd" />
        <path
           id="path6671"
           d="m 214.841,321.443 c 4.554,-1.876 12.183,7.287 13.923,13.487 1.74,6.2 -0.87,26.649 -5.656,29.694 -4.786,3.045 -10.006,5.547 -11.855,3.807 -1.849,-1.74 -2.61,-4.134 -1.088,-6.853 1.522,-2.719 6.09,-11.203 1.631,-18.056 -4.459,-6.853 -5.003,-10.008 -3.045,-14.467 1.958,-4.459 2.392,-6.088 6.09,-7.612 z"
           inkscape:connector-curvature="0"
           style="fill:#5da9dd" />
        <path
           id="path6673"
           d="m 231.155,324.924 c 0,0 -3.916,1.632 -3.154,5.112 0.762,3.48 3.046,7.724 2.502,11.639 -0.544,3.915 -1.414,16.207 0.544,18.6 1.958,2.393 8.594,0.869 12.183,-3.59 3.589,-4.459 4.786,-11.529 5.438,-13.813 0.652,-2.284 -1.633,-5.656 -3.264,-7.614 -1.631,-1.958 -2.609,-8.593 -3.371,-10.007 -0.762,-1.414 -4.024,-4.677 -6.2,-3.48 -2.176,1.197 -4.135,2.391 -4.678,3.153 z"
           inkscape:connector-curvature="0"
           style="fill:#5da9dd" />
      </g>
      <g
         id="g6701">
        <path
           id="path6677"
           d="m 92.805,424.252 9.951,-14.939 7.262,4.837 c 1.637,1.09 2.562,2.348 2.774,3.771 0.162,1.109 -0.08,2.15 -0.727,3.121 -0.619,0.929 -1.331,1.517 -2.135,1.762 -0.453,0.139 -1.031,0.164 -1.733,0.077 0.634,0.883 0.911,1.788 0.833,2.718 -0.069,0.795 -0.381,1.608 -0.935,2.44 -0.397,0.597 -0.883,1.085 -1.456,1.464 -0.573,0.379 -1.201,0.632 -1.886,0.757 -0.8,0.147 -1.523,0.137 -2.17,-0.034 -0.901,-0.24 -2.053,-0.827 -3.454,-1.76 z m 7.376,-4.579 -2.661,3.994 3.828,2.551 c 0.777,0.517 1.488,0.735 2.133,0.654 0.645,-0.082 1.217,-0.496 1.716,-1.245 0.406,-0.61 0.493,-1.208 0.263,-1.793 -0.231,-0.585 -0.666,-1.09 -1.305,-1.515 z m 3.852,-5.785 -2.176,3.267 3.662,2.439 c 0.666,0.443 1.27,0.665 1.811,0.665 0.623,-0.005 1.125,-0.291 1.504,-0.86 0.388,-0.582 0.469,-1.124 0.242,-1.626 -0.228,-0.501 -0.715,-1.002 -1.464,-1.501 z"
           inkscape:connector-curvature="0"
           style="fill:#ffffff" />
        <path
           id="path6679"
           d="m 129.003,424.396 -1.4,2.851 -8.549,-4.199 -1.664,3.389 7.854,3.857 -1.399,2.85 -7.854,-3.857 -2.05,4.174 8.932,4.387 -1.399,2.85 -12.23,-6.006 7.913,-16.112 z"
           inkscape:connector-curvature="0"
           style="fill:#ffffff" />
        <path
           id="path6681"
           d="m 125.414,442.339 6.02,-16.91 8.55,3.044 c 1.538,0.547 2.624,1.35 3.257,2.406 0.79,1.308 0.911,2.73 0.364,4.27 -0.336,0.941 -0.865,1.695 -1.588,2.261 -0.724,0.565 -1.544,0.844 -2.461,0.836 0.673,0.646 1.066,1.229 1.183,1.748 0.148,0.725 -0.039,1.825 -0.564,3.301 -0.476,1.335 -0.748,2.212 -0.816,2.629 -0.069,0.418 0.054,0.754 0.371,1.008 l -0.159,0.447 -3.91,-1.392 c 0.036,-0.5 0.107,-0.997 0.212,-1.49 0.105,-0.493 0.313,-1.18 0.627,-2.059 0.458,-1.287 0.626,-2.156 0.504,-2.607 -0.173,-0.609 -0.879,-1.136 -2.119,-1.577 l -3.65,-1.299 -2.356,6.618 z m 6.832,-8.235 4.146,1.476 c 0.942,0.336 1.696,0.405 2.262,0.208 0.564,-0.196 0.996,-0.711 1.292,-1.543 0.207,-0.581 0.228,-1.113 0.064,-1.597 -0.24,-0.669 -0.823,-1.168 -1.749,-1.498 l -4.404,-1.567 z"
           inkscape:connector-curvature="0"
           style="fill:#ffffff" />
        <path
           id="path6683"
           d="m 143.984,442.894 3.5,0.844 c -0.172,0.713 -0.104,1.354 0.205,1.926 0.464,0.85 1.4,1.443 2.811,1.783 1.037,0.249 1.898,0.303 2.584,0.159 0.868,-0.186 1.403,-0.699 1.606,-1.542 0.152,-0.632 -0.024,-1.18 -0.53,-1.645 -0.338,-0.304 -1.041,-0.73 -2.108,-1.279 l -1.767,-0.889 c -1.758,-0.886 -2.921,-1.646 -3.488,-2.279 -0.959,-1.071 -1.231,-2.466 -0.818,-4.184 0.324,-1.345 1.002,-2.382 2.035,-3.109 1.466,-1.036 3.455,-1.251 5.967,-0.646 2.382,0.574 4.019,1.68 4.91,3.317 0.689,1.263 0.869,2.583 0.537,3.961 l -3.5,-0.844 c 0.087,-0.716 0.013,-1.299 -0.221,-1.75 -0.42,-0.821 -1.326,-1.399 -2.72,-1.735 -0.826,-0.198 -1.542,-0.217 -2.146,-0.054 -0.755,0.213 -1.22,0.684 -1.395,1.413 -0.145,0.6 -0.044,1.104 0.304,1.513 0.2,0.237 0.567,0.488 1.104,0.755 l 4.001,2.069 c 1.356,0.704 2.307,1.421 2.851,2.152 0.74,0.984 0.937,2.197 0.589,3.639 -0.425,1.767 -1.338,2.995 -2.738,3.687 -1.538,0.761 -3.376,0.884 -5.515,0.369 -2.836,-0.684 -4.71,-1.871 -5.622,-3.565 -0.653,-1.204 -0.798,-2.56 -0.436,-4.066 z"
           inkscape:connector-curvature="0"
           style="fill:#ffffff" />
        <path
           id="path6685"
           d="m 165.147,449.282 -1.748,3.492 -3.912,-0.544 8.842,-16.894 4.304,0.599 3.742,18.644 -4.036,-0.562 -0.63,-3.823 z m 1.418,-2.933 4.531,0.631 -1.226,-7.339 z"
           inkscape:connector-curvature="0"
           style="fill:#ffffff" />
        <path
           id="path6687"
           d="m 188.058,440.396 -0.755,14.756 -3.745,-0.191 0.755,-14.756 -5.418,-0.277 0.162,-3.17 14.581,0.745 -0.162,3.171 z"
           inkscape:connector-curvature="0"
           style="fill:#ffffff" />
        <path
           id="path6689"
           d="m 209.591,437.053 0.377,11.669 c 0.074,2.299 -0.529,4.036 -1.809,5.211 -1.215,1.107 -2.996,1.698 -5.345,1.773 -1.05,0.034 -2.004,-0.068 -2.862,-0.308 -1.178,-0.328 -2.146,-0.89 -2.905,-1.683 -0.967,-1.019 -1.479,-2.453 -1.54,-4.302 l -0.383,-11.895 3.822,-0.123 0.376,11.644 c 0.038,1.184 0.367,2.069 0.986,2.657 0.619,0.589 1.395,0.868 2.328,0.838 1.249,-0.04 2.156,-0.361 2.721,-0.963 0.563,-0.602 0.828,-1.461 0.792,-2.577 l -0.382,-11.818 z"
           inkscape:connector-curvature="0"
           style="fill:#ffffff" />
        <path
           id="path6691"
           d="m 227.252,437.946 2.378,14.582 -3.701,0.604 -2.378,-14.582 -5.354,0.873 -0.511,-3.134 14.409,-2.351 0.511,3.134 z"
           inkscape:connector-curvature="0"
           style="fill:#ffffff" />
        <path
           id="path6693"
           d="m 246.376,430.26 0.799,3.072 -9.218,2.398 0.95,3.653 8.469,-2.203 0.799,3.073 -8.468,2.203 1.171,4.5 9.63,-2.506 0.799,3.073 -13.186,3.431 -4.521,-17.371 z"
           inkscape:connector-curvature="0"
           style="fill:#ffffff" />
        <path
           id="path6695"
           d="m 260.863,437.06 -1.077,-2.827 7.009,-2.67 3.444,9.041 -2.336,0.89 -1.151,-1.969 c -0.373,1.034 -0.762,1.815 -1.167,2.344 -0.725,0.954 -1.757,1.687 -3.096,2.196 -2.165,0.825 -4.232,0.783 -6.201,-0.125 -2.163,-0.995 -3.781,-2.902 -4.855,-5.721 -0.949,-2.492 -1.075,-4.789 -0.379,-6.892 0.785,-2.387 2.518,-4.09 5.196,-5.11 2.336,-0.891 4.454,-0.948 6.354,-0.175 1.584,0.646 2.637,1.653 3.158,3.023 l -3.504,1.336 c -0.184,-0.482 -0.685,-0.907 -1.502,-1.273 -1.054,-0.473 -2.126,-0.501 -3.216,-0.086 -1.371,0.522 -2.307,1.414 -2.807,2.675 -0.572,1.448 -0.475,3.178 0.291,5.187 0.801,2.103 1.899,3.44 3.295,4.015 1.122,0.465 2.385,0.429 3.786,-0.105 0.731,-0.278 1.338,-0.724 1.818,-1.335 0.807,-1.02 1.086,-2.321 0.84,-3.904 z"
           inkscape:connector-curvature="0"
           style="fill:#ffffff" />
        <path
           id="path6697"
           d="m 278.98,416.012 5.428,10.337 c 1.068,2.036 1.284,3.862 0.645,5.478 -0.61,1.525 -1.956,2.835 -4.037,3.927 -0.93,0.488 -1.833,0.812 -2.709,0.971 -1.203,0.218 -2.319,0.136 -3.349,-0.247 -1.314,-0.495 -2.401,-1.563 -3.262,-3.2 l -5.531,-10.536 3.387,-1.778 5.415,10.315 c 0.55,1.048 1.232,1.701 2.046,1.961 0.814,0.26 1.634,0.173 2.461,-0.262 1.106,-0.581 1.782,-1.265 2.028,-2.053 0.245,-0.787 0.108,-1.676 -0.411,-2.664 l -5.497,-10.47 z"
           inkscape:connector-curvature="0"
           style="fill:#ffffff" />
        <path
           id="path6699"
           d="m 295.746,416.594 -5.731,4.02 4.621,6.591 -3.07,2.152 -10.305,-14.696 3.07,-2.153 3.903,5.567 5.731,-4.019 -3.903,-5.567 3.07,-2.153 10.305,14.697 -3.07,2.153 z"
           inkscape:connector-curvature="0"
           style="fill:#ffffff" />
      </g>
      <g
         id="g6733">
        <path
           id="path6703"
           d="m 31.508,119.494 h 4.608 c 0,1.174 0.276,2.146 0.832,2.92 0.831,1.146 2.176,1.72 4.031,1.72 1.365,0 2.453,-0.24 3.265,-0.72 1.023,-0.613 1.535,-1.613 1.535,-3 0,-1.04 -0.384,-1.826 -1.151,-2.36 -0.512,-0.346 -1.516,-0.746 -3.008,-1.2 l -2.464,-0.72 c -2.454,-0.72 -4.129,-1.466 -5.024,-2.24 -1.515,-1.306 -2.272,-3.373 -2.272,-6.199 0,-2.214 0.533,-4.08 1.601,-5.601 1.515,-2.16 3.925,-3.24 7.231,-3.24 3.137,0 5.504,1.107 7.104,3.32 1.237,1.707 1.855,3.694 1.855,5.96 h -4.607 c -0.107,-1.146 -0.374,-2.026 -0.8,-2.64 -0.769,-1.12 -2.07,-1.68 -3.904,-1.68 -1.088,0 -1.984,0.239 -2.688,0.72 -0.875,0.613 -1.312,1.52 -1.312,2.72 0,0.987 0.277,1.733 0.832,2.24 0.32,0.294 0.853,0.547 1.6,0.76 l 5.601,1.72 c 1.898,0.587 3.296,1.348 4.191,2.28 1.216,1.254 1.824,3.067 1.824,5.44 0,2.906 -0.768,5.159 -2.304,6.76 -1.686,1.76 -3.937,2.64 -6.752,2.64 -3.733,0 -6.422,-1.146 -8.064,-3.439 -1.173,-1.628 -1.76,-3.682 -1.76,-6.161 z"
           inkscape:connector-curvature="0"
           style="fill:#ffffff" />
        <path
           id="path6705"
           d="m 72.436,99.614 v 18.68 c 0,3.68 -0.843,6.427 -2.528,8.24 -1.6,1.707 -3.903,2.56 -6.912,2.56 -1.344,0 -2.56,-0.214 -3.647,-0.64 -1.493,-0.586 -2.71,-1.533 -3.648,-2.84 -1.194,-1.681 -1.792,-4 -1.792,-6.96 v -19.04 h 4.896 v 18.64 c 0,1.894 0.384,3.327 1.151,4.3 0.769,0.974 1.749,1.46 2.944,1.46 1.601,0 2.773,-0.466 3.521,-1.399 0.746,-0.934 1.119,-2.293 1.119,-4.08 v -18.92 h 4.896 z"
           inkscape:connector-curvature="0"
           style="fill:#ffffff" />
        <path
           id="path6707"
           d="m 99.188,99.614 v 28.72 h -4.48 v -24 l -4.352,24 h -4.704 l -4.192,-24 -0.063,24 h -4.48 v -28.72 h 6.994 l 4.16,22.688 4.18,-22.688 z"
           inkscape:connector-curvature="0"
           style="fill:#ffffff" />
        <path
           id="path6709"
           d="m 108.658,122.414 -1.6,5.92 h -5.057 l 8.23,-28.72 h 5.562 l 8.032,28.72 h -5.216 l -1.472,-5.92 z m 1.28,-4.96 h 5.855 l -2.848,-11.36 z"
           inkscape:connector-curvature="0"
           style="fill:#ffffff" />
        <path
           id="path6711"
           d="m 136.658,104.694 v 23.64 h -4.801 v -23.64 h -6.943 v -5.08 h 18.688 v 5.08 z"
           inkscape:connector-curvature="0"
           style="fill:#ffffff" />
        <path
           id="path6713"
           d="m 163.347,99.614 v 5.08 h -12.192 v 6.04 h 11.2 v 5.08 h -11.2 v 7.439 h 12.736 v 5.08 h -17.44 v -28.72 h 16.896 z"
           inkscape:connector-curvature="0"
           style="fill:#ffffff" />
        <path
           id="path6715"
           d="m 167.794,128.333 v -28.72 h 11.616 c 2.091,0 3.744,0.627 4.96,1.88 1.515,1.547 2.272,3.627 2.272,6.24 0,1.6 -0.315,3.02 -0.944,4.26 -0.63,1.24 -1.499,2.1 -2.608,2.58 1.089,0.613 1.813,1.279 2.177,2 0.49,1.014 0.735,2.773 0.735,5.279 0,2.268 0.049,3.734 0.145,4.4 0.096,0.667 0.389,1.107 0.88,1.32 v 0.76 h -5.313 c -0.171,-0.773 -0.299,-1.56 -0.384,-2.36 -0.085,-0.8 -0.128,-1.946 -0.128,-3.439 0,-2.187 -0.171,-3.587 -0.512,-4.2 -0.47,-0.826 -1.547,-1.24 -3.232,-1.24 h -4.96 v 11.24 z m 4.704,-16.08 h 5.632 c 1.28,0 2.219,-0.3 2.816,-0.9 0.597,-0.6 0.896,-1.605 0.896,-3.02 0,-0.986 -0.203,-1.8 -0.608,-2.44 -0.576,-0.88 -1.493,-1.319 -2.752,-1.319 h -5.984 z"
           inkscape:connector-curvature="0"
           style="fill:#ffffff" />
        <path
           id="path6717"
           d="m 195.762,122.414 -1.6,5.92 h -5.057 l 8.23,-28.72 h 5.562 l 8.032,28.72 h -5.216 l -1.472,-5.92 z m 1.28,-4.96 h 5.855 l -2.848,-11.36 z"
           inkscape:connector-curvature="0"
           style="fill:#ffffff" />
        <path
           id="path6719"
           d="m 221.713,119.494 h 4.608 c 0,1.174 0.276,2.146 0.832,2.92 0.831,1.146 2.176,1.72 4.031,1.72 1.365,0 2.453,-0.24 3.265,-0.72 1.023,-0.613 1.535,-1.613 1.535,-3 0,-1.04 -0.384,-1.826 -1.151,-2.36 -0.512,-0.346 -1.516,-0.746 -3.008,-1.2 l -2.464,-0.72 c -2.454,-0.72 -4.129,-1.466 -5.024,-2.24 -1.515,-1.306 -2.272,-3.373 -2.272,-6.199 0,-2.214 0.533,-4.08 1.601,-5.601 1.515,-2.16 3.925,-3.24 7.231,-3.24 3.137,0 5.504,1.107 7.104,3.32 1.237,1.707 1.855,3.694 1.855,5.96 h -4.607 c -0.107,-1.146 -0.374,-2.026 -0.8,-2.64 -0.769,-1.12 -2.07,-1.68 -3.904,-1.68 -1.088,0 -1.984,0.239 -2.688,0.72 -0.875,0.613 -1.312,1.52 -1.312,2.72 0,0.987 0.277,1.733 0.832,2.24 0.32,0.294 0.853,0.547 1.6,0.76 l 5.601,1.72 c 1.898,0.587 3.296,1.348 4.191,2.28 1.216,1.254 1.824,3.067 1.824,5.44 0,2.906 -0.768,5.159 -2.304,6.76 -1.686,1.76 -3.937,2.64 -6.752,2.64 -3.733,0 -6.422,-1.146 -8.064,-3.439 -1.173,-1.628 -1.76,-3.682 -1.76,-6.161 z"
           inkscape:connector-curvature="0"
           style="fill:#ffffff" />
        <path
           id="path6721"
           d="m 261.137,99.614 v 5.08 h -12.192 v 6.04 h 11.2 v 5.08 h -11.2 v 7.439 h 12.736 v 5.08 h -17.44 v -28.72 h 16.896 z"
           inkscape:connector-curvature="0"
           style="fill:#ffffff" />
        <path
           id="path6723"
           d="m 270.385,99.614 v 23.52 h 11.424 v 5.2 h -16.225 v -28.72 z"
           inkscape:connector-curvature="0"
           style="fill:#ffffff" />
        <path
           id="path6725"
           d="m 290,122.414 -1.6,5.92 h -5.057 l 8.23,-28.72 h 5.562 l 8.032,28.72 h -5.216 l -1.472,-5.92 z m 1.28,-4.96 h 5.855 l -2.848,-11.36 z"
           inkscape:connector-curvature="0"
           style="fill:#ffffff" />
        <path
           id="path6727"
           d="m 316.255,104.694 v 23.64 h -4.801 v -23.64 h -6.943 v -5.08 h 18.688 v 5.08 z"
           inkscape:connector-curvature="0"
           style="fill:#ffffff" />
        <path
           id="path6729"
           d="m 328,122.414 -1.6,5.92 h -5.057 l 8.23,-28.72 h 5.562 l 8.032,28.72 h -5.216 l -1.472,-5.92 z m 1.28,-4.96 h 5.855 l -2.848,-11.36 z"
           inkscape:connector-curvature="0"
           style="fill:#ffffff" />
        <path
           id="path6731"
           d="m 360.256,99.614 h 4.479 v 28.72 h -4.799 l -9.377,-20.48 -0.063,20.48 h -4.48 v -28.72 l 5.05,0.004 9.126,20.014 z"
           inkscape:connector-curvature="0"
           style="fill:#ffffff" />
      </g>
      <circle
         id="circle6735"
         r="94.314003"
         cy="277.436"
         cx="198.12199"
         style="fill:none;stroke:#9a6104;stroke-width:2;stroke-linecap:round;stroke-linejoin:round" />
    </g>
    <path
       style="font-style:normal;font-variant:normal;font-weight:bold;font-stretch:normal;font-size:medium;line-height:1.25;font-family:'Avenir LT Std';-inkscape-font-specification:'Avenir LT Std Bold';font-variant-ligatures:normal;font-variant-caps:normal;font-variant-numeric:normal;font-feature-settings:normal;text-align:start;letter-spacing:0px;word-spacing:0px;writing-mode:lr-tb;text-anchor:start;fill:#f9f9f9;fill-opacity:1;stroke:none;stroke-width:1.00127006"
       d="m -198.78158,83.524104 v 7.561812 h 1.34565 v -3.129524 h 0.96118 c 1.60203,0 3.02256,-0.34168 3.02256,-2.242757 0,-1.676794 -1.32424,-2.189531 -2.78743,-2.189531 z m 6.49727,0 v 4.784721 c 0,1.826316 1.31356,2.969328 3.04375,2.969328 1.7302,0 3.04374,-1.143012 3.04374,-2.969328 v -4.784721 h -1.34566 v 4.742346 c 0,0.747615 -0.40577,1.730127 -1.69808,1.730127 -1.2923,0 -1.69809,-0.982512 -1.69809,-1.730127 v -4.742346 z m 7.74992,0 v 7.561812 h 2.72335 c 1.43115,0 2.86236,-0.512737 2.86236,-2.157491 0,-0.971899 -0.68347,-1.719443 -1.63401,-1.826245 v -0.0217 c 0.77965,-0.234965 1.31361,-0.800779 1.31361,-1.655196 0,-1.377748 -1.17491,-1.901176 -2.31769,-1.901176 z m 6.95772,0 v 7.561812 h 1.28157 V 84.80568 h 0.0212 l 2.2965,6.280236 h 0.93999 l 2.29599,-6.280236 h 0.0212 v 6.280236 h 1.2821 v -7.561812 h -2.02934 l -2.04018,5.297351 -2.01848,-5.297351 z m 9.08626,0 v 1.217497 h 2.31769 v 6.344315 h 1.34565 v -6.344315 h 2.31769 v -1.217497 z m 6.90191,0 v 7.561812 h 1.34565 v -3.204455 h 0.98289 l 1.75131,3.204455 h 1.62316 l -2.00763,-3.342948 c 1.12142,-0.160203 1.75131,-0.961139 1.75131,-2.050521 0,-1.698154 -1.36695,-2.168343 -2.81946,-2.168343 z m -35.84743,1.153418 h 0.96118 c 0.72625,0 1.61282,0.128122 1.61282,1.0573 0,1.025301 -0.99318,1.068152 -1.76216,1.068152 h -0.81184 z m 14.24719,0 h 1.11105 c 1.01462,0 1.46296,0.320541 1.46296,0.972034 0,0.566052 -0.44852,0.950329 -1.34566,0.950329 h -1.22835 z m 22.94589,0 h 1.16427 c 0.69422,0 1.52704,0.106935 1.52704,1.004073 0,0.98258 -0.88605,1.046448 -1.64435,1.046448 h -1.04696 z m -22.94589,3.075781 h 1.29243 c 1.08938,0 1.60197,0.277816 1.60197,1.068152 0,0.99326 -0.96098,1.111043 -1.6552,1.111043 h -1.2392 z"
       id="path1342"
       inkscape:connector-curvature="0" />
    <path
       style="font-style:normal;font-variant:normal;font-weight:normal;font-stretch:normal;font-size:medium;line-height:1.25;font-family:'Avenir LT Std';-inkscape-font-specification:'Avenir LT Std';font-variant-ligatures:normal;font-variant-caps:normal;font-variant-numeric:normal;font-feature-settings:normal;text-align:start;letter-spacing:0px;word-spacing:0px;writing-mode:lr-tb;text-anchor:start;fill:#f9f9f9;fill-opacity:1;stroke:none;stroke-width:0.35449937"
       d="m -163.30675,92.766951 v 2.85874 h 0.29456 v -2.85874 z m -20.57187,0.113171 c -0.46889,0 -0.91105,0.257269 -0.91105,0.771529 0,0.446197 0.28746,0.612639 0.66559,0.737423 0.47645,0.158816 0.69918,0.215694 0.69918,0.54467 0,0.306287 -0.30962,0.465087 -0.58187,0.465087 -0.23067,0 -0.45759,-0.10206 -0.57103,-0.298689 l -0.27233,0.222725 c 0.1815,0.268474 0.51417,0.37052 0.82424,0.37052 0.484,0 0.94154,-0.249214 0.94154,-0.782381 0,-0.525605 -0.38555,-0.66192 -0.8015,-0.794267 -0.42729,-0.136127 -0.56379,-0.245657 -0.56379,-0.491443 0,-0.317632 0.2912,-0.450102 0.57102,-0.450102 0.19284,0 0.38195,0.07582 0.48783,0.24598 l 0.26096,-0.226859 c -0.19662,-0.230661 -0.45007,-0.314193 -0.74879,-0.314193 z m 17.17105,0 c -0.46888,0 -0.91106,0.257269 -0.91106,0.771529 0,0.446197 0.28747,0.612639 0.6656,0.737423 0.47644,0.158816 0.69918,0.215694 0.69918,0.54467 0,0.306287 -0.30963,0.465087 -0.58188,0.465087 -0.23067,0 -0.45759,-0.10206 -0.57102,-0.298689 l -0.27234,0.222725 c 0.1815,0.268474 0.51417,0.37052 0.82424,0.37052 0.48401,0 0.94155,-0.249214 0.94155,-0.782381 0,-0.525605 -0.38557,-0.66192 -0.80151,-0.794267 -0.42729,-0.136127 -0.56379,-0.245657 -0.56379,-0.491443 0,-0.317632 0.29121,-0.450102 0.57103,-0.450102 0.19285,0 0.38194,0.07582 0.48782,0.24598 l 0.26097,-0.226859 c -0.19663,-0.230661 -0.45006,-0.314193 -0.74879,-0.314193 z m -32.11122,0.06821 v 2.677356 h 0.31729 v -1.202511 h 0.53692 c 0.37814,0 0.87747,-0.154935 0.87747,-0.74104 0,-0.559637 -0.44636,-0.733805 -0.93793,-0.733805 z m 7.69824,0 c -0.121,0 -0.21549,0.09826 -0.21549,0.215491 0,0.124784 0.0907,0.21549 0.21549,0.21549 0.12478,0 0.21549,-0.0907 0.21549,-0.21549 0,-0.117221 -0.0944,-0.215491 -0.21549,-0.215491 z m 4.62297,0 c -0.121,0 -0.21549,0.09826 -0.21549,0.215491 0,0.124784 0.0908,0.21549 0.21549,0.21549 0.12479,0 0.21549,-0.0907 0.21549,-0.21549 0,-0.117221 -0.0944,-0.215491 -0.21549,-0.215491 z m -12.00392,0.295072 h 0.53692 c 0.31764,0 0.53692,0.143626 0.53692,0.442351 0,0.298725 -0.21928,0.44235 -0.53692,0.44235 h -0.53692 z m 23.33295,0.109555 v 0.502811 h -0.38603 v 0.249597 h 0.38603 v 0.972034 c 0,0.366789 0.0681,0.593762 0.48782,0.593762 0.10966,0 0.24208,-0.01923 0.34417,-0.0646 l -0.0114,-0.268201 c -0.0794,0.04159 -0.174,0.06046 -0.26097,0.06046 -0.26091,0 -0.26458,-0.181881 -0.26458,-0.40876 v -0.884701 h 0.52141 v -0.249597 h -0.52141 v -0.502802 z m 14.85955,0 v 0.502811 h -0.38602 v 0.249597 h 0.38602 v 0.972034 c 0,0.366789 0.0676,0.593762 0.48731,0.593762 0.10966,0 0.24208,-0.01923 0.34417,-0.0646 l -0.0109,-0.268201 c -0.0794,0.04159 -0.174,0.06046 -0.26097,0.06046 -0.26091,0 -0.2651,-0.181881 -0.2651,-0.40876 v -0.884701 h 0.52193 v -0.249597 h -0.52193 v -0.502802 z m -35.44796,0.457336 c -0.29116,0 -0.51075,0.162989 -0.59015,0.33693 h -0.008 c 0,-0.09831 -0.008,-0.196922 -0.008,-0.291455 h -0.27957 c 0,0.117221 0.015,0.257016 0.015,0.419613 l 0.001,1.350305 h 0.29508 v -0.86248 c 0,-0.404602 0.15857,-0.657841 0.51779,-0.657841 0.0529,0 0.10949,0.0076 0.15865,0.02274 l 0.0191,-0.29869 c -0.0416,-0.01512 -0.0831,-0.01912 -0.12092,-0.01912 z m 1.2361,0 c -0.54451,0 -0.94516,0.378618 -0.94516,0.930692 0,0.552074 0.40065,0.930176 0.94516,0.930176 0.54451,0 0.94568,-0.378102 0.94568,-0.930176 0,-0.552074 -0.40117,-0.930692 -0.94568,-0.930692 z m 5.00434,0 c -0.29116,0 -0.51021,0.162989 -0.58962,0.33693 h -0.008 c 0,-0.09831 -0.008,-0.196922 -0.008,-0.291455 h -0.28009 c 0,0.117221 0.015,0.257016 0.015,0.419613 l 10e-4,1.350305 h 0.29507 v -0.86248 c 0,-0.404602 0.16638,-0.680578 0.54829,-0.680578 0.27604,0 0.40463,0.185646 0.40463,0.48059 v 1.062468 h 0.29507 v -1.092957 c 0,-0.427289 -0.20825,-0.722436 -0.67335,-0.722436 z m 1.77612,0 c -0.32897,0 -0.66197,0.177831 -0.66197,0.521932 0,0.366789 0.28771,0.438554 0.62425,0.51418 0.18907,0.0416 0.37775,0.09102 0.37775,0.280086 0,0.192848 -0.20384,0.272335 -0.38912,0.272335 -0.20798,0 -0.33701,-0.09453 -0.45423,-0.238228 l -0.2341,0.181384 c 0.17395,0.249568 0.3896,0.329179 0.68833,0.329179 0.35166,0 0.70693,-0.155218 0.70693,-0.556038 0,-0.355445 -0.26492,-0.469183 -0.57877,-0.529684 -0.23444,-0.04538 -0.44597,-0.109361 -0.44597,-0.256831 0,-0.16638 0.18518,-0.24598 0.34778,-0.24598 0.17394,0 0.29903,0.08709 0.37466,0.211873 l 0.24546,-0.162781 c -0.121,-0.22688 -0.35143,-0.321427 -0.601,-0.321427 z m 8.10545,0 c -0.29116,0 -0.51022,0.162989 -0.58963,0.33693 h -0.008 c 0,-0.09831 -0.008,-0.196922 -0.008,-0.291455 h -0.28009 c 0,0.117221 0.0155,0.257016 0.0155,0.419613 l 5.2e-4,1.350305 h 0.29507 v -0.86248 c 0,-0.404602 0.16638,-0.680578 0.54829,-0.680578 0.242,0 0.34055,0.151575 0.34055,0.541052 v 1.002006 h 0.29455 v -1.021126 c 0,-0.317631 0.20829,-0.521932 0.45785,-0.521932 0.3441,0 0.43098,0.238422 0.43098,0.484208 v 1.05885 h 0.29508 v -1.073836 c 0,-0.457541 -0.16665,-0.741557 -0.67335,-0.741557 -0.26847,0 -0.43109,0.128957 -0.55965,0.33693 -0.0567,-0.121003 -0.17775,-0.33693 -0.55966,-0.33693 z m 3.03134,0 c -0.25713,0 -0.5218,0.08705 -0.70331,0.272335 l 0.185,0.192753 c 0.13991,-0.128565 0.33649,-0.192753 0.52555,-0.192753 0.27603,0 0.43873,0.13251 0.43873,0.38964 v 0.05271 h -0.11317 c -0.43486,0 -1.1157,0.03401 -1.1157,0.620117 0,0.344101 0.29861,0.526066 0.65784,0.526066 0.26847,0 0.46518,-0.128555 0.5824,-0.310058 h 0.008 c 0,0.07563 -3e-4,0.185175 0.0186,0.264583 h 0.2837 c -0.0151,-0.09075 -0.0264,-0.204345 -0.0264,-0.306441 v -0.760161 c 0,-0.499135 -0.21974,-0.748791 -0.74156,-0.748791 z m 3.4184,0 c -0.52182,0 -0.90744,0.382401 -0.90744,0.930692 0,0.514261 0.34021,0.930176 0.89607,0.930176 0.32898,0 0.57853,-0.09842 0.78651,-0.366902 l -0.22272,-0.17415 c -0.13991,0.177722 -0.31044,0.268717 -0.56379,0.268717 -0.32141,0 -0.55558,-0.26112 -0.57826,-0.567407 h 1.42937 v -0.09457 c 0,-0.586106 -0.3406,-0.926558 -0.83974,-0.926558 z m 2.16937,0 c -0.29117,0 -0.51073,0.162989 -0.59014,0.33693 h -0.008 c 0,-0.09831 -0.008,-0.196922 -0.008,-0.291455 h -0.27957 c 0,0.117221 0.015,0.257016 0.015,0.419613 l 0.001,1.350305 h 0.29455 v -0.86248 c 0,-0.404602 0.15909,-0.657841 0.51832,-0.657841 0.0529,0 0.10949,0.0076 0.15865,0.02274 l 0.0191,-0.29869 c -0.0416,-0.01512 -0.0831,-0.01912 -0.12093,-0.01912 z m 1.1405,0 c -0.25713,0 -0.5218,0.08705 -0.70331,0.272335 l 0.185,0.192753 c 0.13991,-0.128565 0.33649,-0.192753 0.52555,-0.192753 0.27604,0 0.43873,0.13251 0.43873,0.38964 v 0.05271 h -0.11369 c -0.43485,0 -1.11518,0.03401 -1.11518,0.620117 0,0.344101 0.29862,0.526066 0.65785,0.526066 0.26847,0 0.46517,-0.128555 0.58239,-0.310058 h 0.008 c 0,0.07563 2.2e-4,0.185175 0.0191,0.264583 h 0.2837 c -0.0151,-0.09075 -0.0269,-0.204345 -0.0269,-0.306441 v -0.760161 c 0,-0.499135 -0.21922,-0.748791 -0.74104,-0.748791 z m 5.24258,0 c -0.52182,0 -0.90744,0.382401 -0.90744,0.930692 0,0.514261 0.34021,0.930176 0.89607,0.930176 0.32897,0 0.57854,-0.09842 0.78651,-0.366902 l -0.22324,-0.17415 c -0.13991,0.177722 -0.30992,0.268717 -0.56327,0.268717 -0.32142,0 -0.55609,-0.26112 -0.57878,-0.567407 h 1.42937 v -0.09457 c 0,-0.586106 -0.34008,-0.926558 -0.83922,-0.926558 z m 2.88871,0 c -0.25713,0 -0.52182,0.08705 -0.70332,0.272335 l 0.185,0.192753 c 0.13992,-0.128565 0.3365,-0.192753 0.52555,-0.192753 0.27604,0 0.43874,0.13251 0.43874,0.38964 v 0.05271 h -0.11369 c -0.43485,0 -1.11518,0.03401 -1.11518,0.620117 0,0.344101 0.29861,0.526066 0.65784,0.526066 0.26847,0 0.46518,-0.128555 0.58239,-0.310058 h 0.008 c 0,0.07563 2.2e-4,0.185175 0.0191,0.264583 h 0.2837 c -0.0151,-0.09075 -0.0269,-0.204345 -0.0269,-0.306441 v -0.760161 c 0,-0.499135 -0.21921,-0.748791 -0.74104,-0.748791 z m 3.29386,0 c -0.25713,0 -0.52181,0.08705 -0.70332,0.272335 l 0.185,0.192753 c 0.13991,-0.128565 0.33649,-0.192753 0.52555,-0.192753 0.27604,0 0.43873,0.13251 0.43873,0.38964 v 0.05271 h -0.11368 c -0.43487,0 -1.11518,0.03401 -1.11518,0.620117 0,0.344101 0.29861,0.526066 0.65784,0.526066 0.26847,0 0.46517,-0.128555 0.58239,-0.310058 h 0.008 c 0,0.07563 2.2e-4,0.185175 0.0191,0.264583 h 0.28371 c -0.0151,-0.09075 -0.0269,-0.204345 -0.0269,-0.306441 v -0.760161 c 0,-0.499135 -0.21923,-0.748791 -0.74104,-0.748791 z m 2.15335,0 c -0.29117,0 -0.51073,0.162989 -0.59014,0.33693 h -0.008 c 0,-0.09831 -0.008,-0.196922 -0.008,-0.291455 h -0.27957 c 0,0.117221 0.015,0.257016 0.015,0.419613 l 0.001,1.350305 h 0.29507 v -0.86248 c 0,-0.404602 0.16637,-0.680578 0.54829,-0.680578 0.27603,0 0.40462,0.185646 0.40462,0.48059 v 1.062468 h 0.29456 v -1.092957 c 0,-0.427289 -0.20773,-0.722436 -0.67283,-0.722436 z m -37.0644,0.04548 0.72243,1.769918 h 0.32505 l 0.70022,-1.769918 h -0.31781 l -0.52555,1.388029 h -0.008 l -0.55191,-1.388029 z m 2.09341,0 v 1.769918 h 0.29456 v -1.769918 z m 4.62297,0 v 1.769918 h 0.29508 v -1.769918 z m 4.03542,0 v 1.092957 c 0,0.42729 0.20824,0.722436 0.67334,0.722436 0.29116,0 0.51022,-0.162988 0.58963,-0.33693 h 0.008 c 0,0.09831 0.008,0.196921 0.008,0.291455 h 0.28008 c 0,-0.117221 -0.0155,-0.257016 -0.0155,-0.419613 l -5.2e-4,-1.350305 h -0.29507 v 0.86248 c 0,0.404602 -0.16638,0.680578 -0.54829,0.680578 -0.27603,0 -0.40462,-0.185647 -0.40462,-0.48059 v -1.062468 z m -11.91142,0.22686 c 0.38191,0 0.62787,0.287788 0.62787,0.658357 0,0.37057 -0.24596,0.657841 -0.62787,0.657841 -0.38192,0 -0.62735,-0.287271 -0.62735,-0.657841 0,-0.370569 0.24543,-0.658357 0.62735,-0.658357 z m 21.32428,0 c 0.32519,0 0.52195,0.20047 0.5333,0.499194 h -1.11156 c 0.0378,-0.298724 0.25307,-0.499194 0.57826,-0.499194 z m 8.55245,0 c 0.32519,0 0.52196,0.20047 0.5333,0.499194 h -1.11208 c 0.0378,-0.298724 0.25358,-0.499194 0.57878,-0.499194 z m -11.80858,0.691947 h 0.29507 v 0.113688 c -0.008,0.287381 -0.18161,0.533301 -0.52193,0.533301 -0.22309,0 -0.38913,-0.08334 -0.38913,-0.306441 0,-0.238224 0.24164,-0.340548 0.61599,-0.340548 z m 6.72827,0 h 0.29507 v 0.113688 c -0.008,0.287381 -0.18162,0.533301 -0.52193,0.533301 -0.2231,0 -0.38964,-0.08334 -0.38964,-0.306441 0,-0.238224 0.24215,-0.340548 0.6165,-0.340548 z m 8.13128,0 h 0.29508 v 0.113688 c -0.008,0.287381 -0.18161,0.533301 -0.52193,0.533301 -0.2231,0 -0.38965,-0.08334 -0.38965,-0.306441 0,-0.238224 0.24215,-0.340548 0.6165,-0.340548 z m 3.29386,0 h 0.29507 v 0.113688 c -0.008,0.287381 -0.18161,0.533301 -0.52193,0.533301 -0.22309,0 -0.38964,-0.08334 -0.38964,-0.306441 0,-0.238224 0.24215,-0.340548 0.6165,-0.340548 z"
       id="path1362"
       inkscape:connector-curvature="0" />
  </g>
</svg>
