<?xml version="1.0" encoding="UTF-8" standalone="no"?>
<!-- Created with Inkscape (http://www.inkscape.org/) -->

<svg
   xmlns:dc="http://purl.org/dc/elements/1.1/"
   xmlns:cc="http://creativecommons.org/ns#"
   xmlns:rdf="http://www.w3.org/1999/02/22-rdf-syntax-ns#"
   xmlns:svg="http://www.w3.org/2000/svg"
   xmlns="http://www.w3.org/2000/svg"
   xmlns:sodipodi="http://sodipodi.sourceforge.net/DTD/sodipodi-0.dtd"
   xmlns:inkscape="http://www.inkscape.org/namespaces/inkscape"
   width="27.122072mm"
   height="19.719973mm"
   viewBox="0 0 27.122072 19.719973"
   version="1.1"
   id="svg40924"
   sodipodi:docname="visi_three.svg"
   inkscape:version="0.92.2 (unknown)">
  <defs
     id="defs40918" />
  <sodipodi:namedview
     id="base"
     pagecolor="#ffffff"
     bordercolor="#666666"
     borderopacity="1.0"
     inkscape:pageopacity="0.0"
     inkscape:pageshadow="2"
     inkscape:zoom="1.4"
     inkscape:cx="187.76636"
     inkscape:cy="-42.948007"
     inkscape:document-units="mm"
     inkscape:current-layer="layer1"
     showgrid="false"
     inkscape:window-width="1366"
     inkscape:window-height="701"
     inkscape:window-x="0"
     inkscape:window-y="24"
     inkscape:window-maximized="1" />
  <metadata
     id="metadata40921">
    <rdf:RDF>
      <cc:Work
         rdf:about="">
        <dc:format>image/svg+xml</dc:format>
        <dc:type
           rdf:resource="http://purl.org/dc/dcmitype/StillImage" />
        <dc:title></dc:title>
      </cc:Work>
    </rdf:RDF>
  </metadata>
  <g
     inkscape:label="Layer 1"
     inkscape:groupmode="layer"
     id="layer1"
     transform="translate(202.3612,-95.12811)">
    <g
       transform="matrix(0.1165483,0,0,-0.1165483,-318.24389,1994.8654)"
       id="g39054"
       style="fill:#1c549d;fill-opacity:1;stroke:none">
      <path
         inkscape:connector-curvature="0"
         id="path39056"
         style="fill:#1c549d;fill-opacity:1;fill-rule:nonzero;stroke:none"
         d="m 1052.47,16236.5 h -10.58 c -2.92,0 -5.29,-2.3 -5.29,-5.3 0,-2.9 2.37,-5.2 5.29,-5.2 h 10.58 c 2.92,0 5.28,2.3 5.28,5.2 0,3 -2.36,5.3 -5.28,5.3 z m 69.57,-34.7 -2.01,-4.6 h -19 c -0.06,-0.3 -0.08,-0.6 -0.08,-1.1 v -1.6 c 0,-1.3 0.02,-2 0.08,-2.3 h 17.91 l -1.93,-4.6 h -15.6 c 0.62,-3.9 1.94,-7 3.96,-9.2 2.33,-2.8 5.48,-4.2 9.46,-4.2 2.59,0 4.74,0.5 6.44,1.2 1.55,0.7 3.31,2 5.28,3.6 v -8 c -3.52,-2.2 -7.43,-3.2 -11.72,-3.2 -6.93,0 -12.33,1.9 -16.21,6 -3.36,3.4 -5.46,8 -6.28,13.8 h -5.97 l 2.09,4.6 h 3.49 c -0.05,0.4 -0.09,0.7 -0.12,1.1 -0.03,0.4 -0.04,0.8 -0.04,1.2 0,0.4 0.01,0.8 0.04,1.2 0.03,0.4 0.07,1 0.12,1.5 h -5.58 l 2.01,4.6 h 4.11 c 1.29,5.6 3.65,10 7.06,13.3 3.98,3.7 9.08,5.6 15.28,5.6 4.5,0 9.1,-1.5 13.81,-4.5 l -3.57,-6.6 c -3.31,3 -6.93,4.6 -10.86,4.6 -3.47,0 -6.36,-1.3 -8.69,-3.8 -1.96,-2.3 -3.28,-5.2 -3.95,-8.6 z m -11.4,34.7 c -23.37,0 -42.31,-18.9 -42.31,-42.3 0,-23.4 18.94,-42.3 42.31,-42.3 23.37,0 42.31,18.9 42.31,42.3 0,23.4 -18.94,42.3 -42.31,42.3 z m 100.49,0 c -2.92,0 -5.29,2.4 -5.29,5.3 0,2.9 2.37,5.3 5.29,5.3 2.92,0 5.29,-2.4 5.29,-5.3 0,-2.9 -2.37,-5.3 -5.29,-5.3 z m 5.29,-75 c -1.67,0.6 -3.43,1 -5.29,1 -8.76,0 -15.87,-7.1 -15.87,-15.9 0,-1.8 0.38,-3.6 0.98,-5.3 h -171.19 c 0.59,1.7 0.97,3.5 0.97,5.3 0,8.8 -7.1,15.9 -15.86,15.9 -1.87,0 -3.63,-0.4 -5.29,-1 v 65.4 c 1.66,-0.6 3.42,-0.9 5.29,-0.9 8.76,0 15.86,7 15.86,15.8 0,1.9 -0.38,3.7 -0.97,5.3 h 171.19 c -0.6,-1.6 -0.98,-3.4 -0.98,-5.3 0,-8.8 7.11,-15.8 15.87,-15.8 1.86,0 3.62,0.3 5.29,0.9 z m -5.29,-20.2 c -2.92,0 -5.29,2.4 -5.29,5.3 0,2.9 2.37,5.3 5.29,5.3 2.92,0 5.29,-2.4 5.29,-5.3 0,-2.9 -2.37,-5.3 -5.29,-5.3 z m -200.97,0 c -2.92,0 -5.29,2.4 -5.29,5.3 0,2.9 2.37,5.3 5.29,5.3 2.91,0 5.28,-2.4 5.28,-5.3 0,-2.9 -2.37,-5.3 -5.28,-5.3 z m 0,105.8 c 2.91,0 5.28,-2.4 5.28,-5.3 0,-2.9 -2.37,-5.3 -5.28,-5.3 -2.92,0 -5.29,2.4 -5.29,5.3 0,2.9 2.37,5.3 5.29,5.3 z m 206.26,10.6 h -211.55 c -5.841,0 -10.581,-4.8 -10.581,-10.6 v -105.8 c 0,-5.8 4.74,-10.5 10.581,-10.5 h 211.55 c 5.84,0 10.58,4.7 10.58,10.5 v 105.8 c 0,5.8 -4.74,10.6 -10.58,10.6 z m -37.02,-95.2 h -10.58 c -2.92,0 -5.29,-2.4 -5.29,-5.3 0,-2.9 2.37,-5.3 5.29,-5.3 h 10.58 c 2.92,0 5.29,2.4 5.29,5.3 0,2.9 -2.37,5.3 -5.29,5.3 z m -137.51,126.9 h 137.51 c 2.92,0 5.29,2.4 5.29,5.3 0,2.9 -2.37,5.3 -5.29,5.3 h -137.51 c -2.92,0 -5.29,-2.4 -5.29,-5.3 0,-2.9 2.37,-5.3 5.29,-5.3 z m -21.16,-21.1 h 179.82 c 2.92,0 5.29,2.3 5.29,5.3 0,2.9 -2.37,5.2 -5.29,5.2 h -179.82 c -2.92,0 -5.29,-2.3 -5.29,-5.2 0,-3 2.37,-5.3 5.29,-5.3" />
    </g>
  </g>
</svg>
