<?xml version="1.0" encoding="UTF-8" standalone="no"?>
<!-- Created with Inkscape (http://www.inkscape.org/) -->

<svg
   xmlns:dc="http://purl.org/dc/elements/1.1/"
   xmlns:cc="http://creativecommons.org/ns#"
   xmlns:rdf="http://www.w3.org/1999/02/22-rdf-syntax-ns#"
   xmlns:svg="http://www.w3.org/2000/svg"
   xmlns="http://www.w3.org/2000/svg"
   xmlns:xlink="http://www.w3.org/1999/xlink"
   xmlns:sodipodi="http://sodipodi.sourceforge.net/DTD/sodipodi-0.dtd"
   xmlns:inkscape="http://www.inkscape.org/namespaces/inkscape"
   width="251.48953mm"
   height="59.782017mm"
   viewBox="0 0 251.48953 59.782017"
   version="1.1"
   id="svg3842"
   inkscape:version="0.92.2 (unknown)"
   sodipodi:docname="visi_one.svg">
  <defs
     id="defs3836">
    <radialGradient
       inkscape:collect="always"
       xlink:href="#linearGradient3798"
       id="radialGradient3800"
       cx="-1182.2568"
       cy="-3870.6001"
       fx="-1182.2568"
       fy="-3870.6001"
       r="84.58107"
       gradientUnits="userSpaceOnUse"
       gradientTransform="matrix(0.35277776,0,0,0.35277776,427.05349,1479.5211)" />
    <linearGradient
       inkscape:collect="always"
       id="linearGradient3798">
      <stop
         style="stop-color:#1c549d;stop-opacity:1"
         offset="0"
         id="stop3794" />
      <stop
         style="stop-color:#1c549d;stop-opacity:1"
         offset="1"
         id="stop3796" />
    </linearGradient>
  </defs>
  <sodipodi:namedview
     id="base"
     pagecolor="#ffffff"
     bordercolor="#666666"
     borderopacity="1.0"
     inkscape:pageopacity="0.0"
     inkscape:pageshadow="2"
     inkscape:zoom="0.35"
     inkscape:cx="-34.744183"
     inkscape:cy="-18.454676"
     inkscape:document-units="mm"
     inkscape:current-layer="layer1"
     showgrid="false"
     inkscape:window-width="1366"
     inkscape:window-height="744"
     inkscape:window-x="0"
     inkscape:window-y="24"
     inkscape:window-maximized="1" />
  <metadata
     id="metadata3839">
    <rdf:RDF>
      <cc:Work
         rdf:about="">
        <dc:format>image/svg+xml</dc:format>
        <dc:type
           rdf:resource="http://purl.org/dc/dcmitype/StillImage" />
        <dc:title></dc:title>
      </cc:Work>
    </rdf:RDF>
  </metadata>
  <g
     inkscape:label="Layer 1"
     inkscape:groupmode="layer"
     id="layer1"
     transform="translate(19.911435,-84.168515)">
    <rect
       ry="29.788321"
       rx="29.788321"
       y="84.271202"
       x="-19.808748"
       height="59.576645"
       width="251.28416"
       id="rect3808"
       style="opacity:1;fill:#ffffff;fill-opacity:1;stroke:#999999;stroke-width:0.20537357;stroke-linecap:round;stroke-linejoin:round;stroke-miterlimit:4;stroke-dasharray:none;stroke-dashoffset:0;stroke-opacity:1" />
    <rect
       style="opacity:1;fill:url(#radialGradient3800);fill-opacity:1;stroke:none;stroke-width:0.1;stroke-linecap:round;stroke-linejoin:round;stroke-miterlimit:4;stroke-dasharray:none;stroke-dashoffset:0;stroke-opacity:1"
       id="rect3718"
       width="59.576645"
       height="59.576645"
       x="-19.808748"
       y="84.271202"
       rx="29.788321"
       ry="29.788321" />
    <path
       d="m -1.1451437,110.74806 v -1.11351 H 20.966967 v 1.11351 z m 17.6899707,11.04815 v -9.94911 h 2.21107 v 9.94911 z m -3.317312,0 v -9.94911 h 2.211036 v 9.94911 z m -5.5269677,0 v -9.94911 h 4.4221737 v 9.94911 z m -3.317345,0 v -9.94911 h 2.211103 v 9.94911 z m -3.317311,0 v -9.94911 h 2.211105 v 9.94911 z m 18.9495627,1.11344 0.737483,2.21255 H -0.93114867 l 0.737517,-2.21255 z M 9.9116173,103.08382 19.43845,108.53558 H 0.38478333 Z m 11.6077647,8.76328 c 0.306563,0 0.553861,-0.24585 0.553861,-0.54952 v -2.21248 c 0,-0.2025 -0.117158,-0.37606 -0.283422,-0.47724 h 0.0042 l -11.60921,-6.63755 -0.0042,0.0145 c -0.081,-0.0579 -0.169193,-0.0868 -0.2689937,-0.0868 -0.101211,0 -0.189442,0.0286 -0.270404,0.0868 l -0.0042,-0.0145 -11.60921,6.63755 h 0.0042 c -0.166299,0.10118 -0.281975,0.27474 -0.281975,0.47724 v 2.21248 c 0,0.30367 0.245815,0.54952 0.552379,0.54952 h 1.65869103 v 9.94911 h -0.553861 c -0.242958,0 -0.44393603,0.15903 -0.51770203,0.37592 h -0.0056 l -1.106276,3.32602 h 0.0074 c -0.0187,0.0578 -0.03457,0.11572 -0.03457,0.17354 0,0.3037 0.245851,0.54952 0.55245,0.54952 H 21.519844 c 0.306599,0 0.55386,-0.24582 0.55386,-0.54952 0,-0.0578 -0.01588,-0.11571 -0.03457,-0.17354 h 0.0056 l -1.106241,-3.32602 h -0.0056 c -0.07377,-0.21689 -0.27478,-0.37592 -0.517736,-0.37592 h -0.553826 v -9.94911 h 1.658654"
       style="fill:#ffffff;fill-opacity:1;fill-rule:nonzero;stroke:none;stroke-width:0.14460878"
       id="path3720"
       inkscape:connector-curvature="0" />
    <g
       aria-label="Pembangunan"
       style="font-style:normal;font-variant:normal;font-weight:normal;font-stretch:normal;font-size:17.72203064px;line-height:1.25;font-family:'Avenir LT Std';-inkscape-font-specification:'Avenir LT Std, Normal';font-variant-ligatures:normal;font-variant-caps:normal;font-variant-numeric:normal;font-feature-settings:normal;text-align:start;letter-spacing:0px;word-spacing:0px;writing-mode:lr-tb;text-anchor:start;fill:#000000;fill-opacity:1;stroke:none;stroke-width:1.66144049"
       id="text3814">
      <path
         d="m 64.615069,118.63181 h 1.488651 v -5.6356 h 2.516528 c 1.772203,0 4.111511,-0.72661 4.111511,-3.47352 0,-2.62286 -2.091199,-3.43807 -4.395063,-3.43807 h -3.721627 z m 1.488651,-11.16488 h 2.516528 c 1.488651,0 2.516529,0.67344 2.516529,2.07348 0,1.40004 -1.027878,2.07348 -2.516529,2.07348 H 66.10372 Z"
         style="stroke-width:1.66144049"
         id="path4445" />
      <path
         d="m 81.251625,116.31023 c -0.655715,0.83293 -1.453206,1.25826 -2.640583,1.25826 -1.506372,0 -2.605138,-1.22282 -2.71147,-2.6583 h 6.698927 v -0.44305 c 0,-2.74692 -1.594982,-4.3419 -3.93429,-4.3419 -2.445641,0 -4.253288,1.78992 -4.253288,4.35962 0,2.41019 1.594983,4.35962 4.200121,4.35962 1.541817,0 2.711471,-0.46078 3.686183,-1.71904 z m -5.352053,-2.5697 c 0.17722,-1.40004 1.187376,-2.33931 2.71147,-2.33931 1.524095,0 2.445641,0.93927 2.498807,2.33931 z"
         style="stroke-width:1.66144049"
         id="path4447" />
      <path
         d="m 84.754217,118.63181 h 1.382319 v -4.04062 c 0,-1.89626 0.779769,-3.18997 2.569694,-3.18997 1.13421,0 1.594983,0.70889 1.594983,2.53425 v 4.69634 h 1.382318 v -4.78495 c 0,-1.48865 0.974712,-2.44564 2.144366,-2.44564 1.612705,0 2.020312,1.11649 2.020312,2.26842 v 4.96217 h 1.382318 v -5.03305 c 0,-2.14437 -0.779769,-3.47352 -3.154521,-3.47352 -1.258265,0 -2.020312,0.60255 -2.622861,1.57726 -0.26583,-0.56711 -0.832935,-1.57726 -2.622861,-1.57726 -1.364596,0 -2.392474,0.76205 -2.764636,1.57726 h -0.03544 c 0,-0.46077 -0.03544,-0.92155 -0.03544,-1.3646 h -1.311431 c 0,0.54939 0.07089,1.2051 0.07089,1.96715 z"
         style="stroke-width:1.66144049"
         id="path4449" />
      <path
         d="m 99.774749,118.63181 h 1.382321 v -1.47093 h 0.0354 c 0.51394,0.93927 1.70132,1.6836 3.18997,1.6836 2.32158,0 4.14695,-1.87854 4.14695,-4.35962 0,-2.51653 -1.75448,-4.35962 -4.35962,-4.35962 -1.2051,0 -2.21525,0.53166 -2.9773,1.41776 h -0.0354 v -6.30904 h -1.382321 z m 1.382321,-4.14695 c 0,-1.73676 1.15193,-3.08364 2.94185,-3.08364 1.78993,0 2.94186,1.34688 2.94186,3.08364 0,1.73676 -1.15193,3.08363 -2.94186,3.08363 -1.78992,0 -2.94185,-1.34687 -2.94185,-3.08363 z"
         style="stroke-width:1.66144049"
         id="path4451" />
      <path
         d="m 111.44166,112.30505 c 0.65571,-0.60255 1.57726,-0.90383 2.46336,-0.90383 1.29371,0 2.05575,0.62028 2.05575,1.82537 v 0.24811 h -0.53166 c -2.03803,0 -5.228,0.1595 -5.228,2.90642 0,1.6127 1.40005,2.46336 3.08364,2.46336 1.25826,0 2.17981,-0.60255 2.72919,-1.45321 h 0.0354 c 0,0.35444 0,0.86838 0.0886,1.24054 h 1.32915 c -0.0709,-0.42533 -0.12406,-0.95699 -0.12406,-1.43548 v -3.56213 c 0,-2.33931 -1.02787,-3.50896 -3.47351,-3.50896 -1.2051,0 -2.44565,0.40761 -3.2963,1.27598 z m 4.51911,2.33931 v 0.53166 c -0.0354,1.34687 -0.85065,2.4988 -2.44564,2.4988 -1.0456,0 -1.82536,-0.38988 -1.82536,-1.43548 0,-1.11649 1.13421,-1.59498 2.88869,-1.59498 z"
         style="stroke-width:1.66144049"
         id="path4453" />
      <path
         d="m 119.88676,118.63181 h 1.38232 v -4.04062 c 0,-1.89626 0.77977,-3.18997 2.56969,-3.18997 1.29371,0 1.89626,0.86838 1.89626,2.2507 v 4.97989 h 1.38232 v -5.12166 c 0,-2.00259 -0.97471,-3.38491 -3.15452,-3.38491 -1.3646,0 -2.39248,0.76205 -2.76464,1.57726 h -0.0354 c 0,-0.46077 -0.0354,-0.92155 -0.0354,-1.3646 h -1.31143 c 0,0.54939 0.0709,1.2051 0.0709,1.96715 z"
         style="stroke-width:1.66144049"
         id="path4455" />
      <path
         d="m 138.02775,110.3379 h -1.38232 v 1.41777 h -0.0354 c -0.54938,-1.09877 -1.80764,-1.63043 -2.92413,-1.63043 -2.64058,0 -4.41279,1.64815 -4.41279,4.35962 0,2.44564 1.80765,4.25329 4.41279,4.25329 1.09877,0 2.26842,-0.4785 2.92413,-1.54182 h 0.0354 v 1.06332 c 0,1.75448 -0.65572,3.34946 -3.1368,3.34946 -1.27599,0 -2.21525,-0.49621 -3.08363,-1.43548 l -0.99244,1.13421 c 1.16966,1.15193 2.46336,1.57726 4.07607,1.57726 2.90641,0 4.51912,-1.63043 4.51912,-4.62545 z m -7.26604,4.14696 c 0,-1.73676 1.18738,-3.08364 2.92414,-3.08364 1.75448,0 2.95958,1.25827 2.95958,3.04819 0,1.59499 -1.06332,3.01275 -2.95958,3.01275 -1.61271,0 -2.92414,-1.29371 -2.92414,-2.9773 z"
         style="stroke-width:1.66144049"
         id="path4457" />
      <path
         d="m 147.81612,110.3379 h -1.38231 v 4.04063 c 0,1.89625 -0.77977,3.18996 -2.5697,3.18996 -1.29371,0 -1.89626,-0.86838 -1.89626,-2.2507 v -4.97989 h -1.38231 v 5.12167 c 0,2.00259 0.97471,3.38491 3.15452,3.38491 1.36459,0 2.39247,-0.76205 2.76463,-1.57726 h 0.0354 c 0,0.46077 0.0354,0.92154 0.0354,1.36459 h 1.31143 c 0,-0.54938 -0.0709,-1.2051 -0.0709,-1.96714 z"
         style="stroke-width:1.66144049"
         id="path4459" />
      <path
         d="m 150.45034,118.63181 h 1.38232 v -4.04062 c 0,-1.89626 0.77977,-3.18997 2.5697,-3.18997 1.2937,0 1.89625,0.86838 1.89625,2.2507 v 4.97989 h 1.38232 v -5.12166 c 0,-2.00259 -0.97471,-3.38491 -3.15452,-3.38491 -1.3646,0 -2.39247,0.76205 -2.76464,1.57726 h -0.0354 c 0,-0.46077 -0.0354,-0.92155 -0.0354,-1.3646 h -1.31143 c 0,0.54939 0.0709,1.2051 0.0709,1.96715 z"
         style="stroke-width:1.66144049"
         id="path4461" />
      <path
         d="m 161.07719,112.30505 c 0.65571,-0.60255 1.57726,-0.90383 2.46336,-0.90383 1.29371,0 2.05576,0.62028 2.05576,1.82537 v 0.24811 h -0.53166 c -2.03804,0 -5.228,0.1595 -5.228,2.90642 0,1.6127 1.40004,2.46336 3.08363,2.46336 1.25826,0 2.17981,-0.60255 2.72919,-1.45321 h 0.0354 c 0,0.35444 0,0.86838 0.0886,1.24054 h 1.32915 c -0.0709,-0.42533 -0.12405,-0.95699 -0.12405,-1.43548 v -3.56213 c 0,-2.33931 -1.02788,-3.50896 -3.47352,-3.50896 -1.2051,0 -2.44564,0.40761 -3.2963,1.27598 z m 4.51912,2.33931 v 0.53166 c -0.0354,1.34687 -0.85066,2.4988 -2.44564,2.4988 -1.0456,0 -1.82537,-0.38988 -1.82537,-1.43548 0,-1.11649 1.13421,-1.59498 2.88869,-1.59498 z"
         style="stroke-width:1.66144049"
         id="path4463" />
      <path
         d="m 169.52229,118.63181 h 1.38232 v -4.04062 c 0,-1.89626 0.77977,-3.18997 2.56969,-3.18997 1.29371,0 1.89626,0.86838 1.89626,2.2507 v 4.97989 h 1.38232 v -5.12166 c 0,-2.00259 -0.97472,-3.38491 -3.15453,-3.38491 -1.36459,0 -2.39247,0.76205 -2.76463,1.57726 h -0.0354 c 0,-0.46077 -0.0354,-0.92155 -0.0354,-1.3646 h -1.31143 c 0,0.54939 0.0709,1.2051 0.0709,1.96715 z"
         style="stroke-width:1.66144049"
         id="path4465" />
    </g>
  </g>
</svg>
