<?xml version="1.0" encoding="UTF-8" standalone="no"?>
<!-- Created with Inkscape (http://www.inkscape.org/) -->

<svg
   xmlns:dc="http://purl.org/dc/elements/1.1/"
   xmlns:cc="http://creativecommons.org/ns#"
   xmlns:rdf="http://www.w3.org/1999/02/22-rdf-syntax-ns#"
   xmlns:svg="http://www.w3.org/2000/svg"
   xmlns="http://www.w3.org/2000/svg"
   xmlns:sodipodi="http://sodipodi.sourceforge.net/DTD/sodipodi-0.dtd"
   xmlns:inkscape="http://www.inkscape.org/namespaces/inkscape"
   width="251.48953mm"
   height="59.782017mm"
   viewBox="0 0 251.48953 59.782017"
   version="1.1"
   id="svg4685"
   inkscape:version="0.92.2 (unknown)"
   sodipodi:docname="visi_three.svg">
  <defs
     id="defs4679" />
  <sodipodi:namedview
     id="base"
     pagecolor="#ffffff"
     bordercolor="#666666"
     borderopacity="1.0"
     inkscape:pageopacity="0.0"
     inkscape:pageshadow="2"
     inkscape:zoom="0.49497475"
     inkscape:cx="1032.7144"
     inkscape:cy="53.263797"
     inkscape:document-units="mm"
     inkscape:current-layer="layer1"
     showgrid="false"
     inkscape:window-width="1920"
     inkscape:window-height="1004"
     inkscape:window-x="1366"
     inkscape:window-y="27"
     inkscape:window-maximized="1" />
  <metadata
     id="metadata4682">
    <rdf:RDF>
      <cc:Work
         rdf:about="">
        <dc:format>image/svg+xml</dc:format>
        <dc:type
           rdf:resource="http://purl.org/dc/dcmitype/StillImage" />
        <dc:title></dc:title>
      </cc:Work>
    </rdf:RDF>
  </metadata>
  <g
     inkscape:label="Layer 1"
     inkscape:groupmode="layer"
     id="layer1"
     transform="translate(351.01858,-86.436368)">
    <rect
       ry="29.788321"
       rx="29.788321"
       y="86.539055"
       x="-350.91589"
       height="59.576645"
       width="251.28416"
       id="rect3822"
       style="opacity:1;fill:#ffffff;fill-opacity:1;stroke:#999999;stroke-width:0.20537357;stroke-linecap:round;stroke-linejoin:round;stroke-miterlimit:4;stroke-dasharray:none;stroke-dashoffset:0;stroke-opacity:1" />
    <rect
       style="opacity:1;fill:#1c549d;fill-opacity:1;stroke:#916f6f;stroke-width:0.1;stroke-linecap:round;stroke-linejoin:round;stroke-miterlimit:4;stroke-dasharray:none;stroke-dashoffset:0;stroke-opacity:1"
       id="rect3775"
       width="59.576645"
       height="59.576645"
       x="-350.91589"
       y="86.539055"
       rx="29.788321"
       ry="29.788321" />
    <g
       id="g3786"
       transform="matrix(0.1627115,0,0,-0.1627115,-799.09831,2757.7454)"
       style="fill:#ffffff">
      <path
         d="m 3011.16,16241.1 h -22.09 v 7.4 c 0,4 -3.3,7.3 -7.36,7.3 h -14.73 c -4.06,0 -7.36,-3.3 -7.36,-7.3 v -7.4 h -44.17 v 7.4 c 0,4 -3.3,7.3 -7.37,7.3 h -14.72 c -4.06,0 -7.36,-3.3 -7.36,-7.3 v -7.4 h -22.09 v 36.8 h 147.25 z m -44.18,-14.7 v 22.1 h 14.73 v -22.1 z m -73.62,0 v 22.1 h 14.72 v -22.1 z m 110.43,-51.6 h -132.52 v 58.9 H 2886 v -7.3 c 0,-4.1 3.3,-7.4 7.36,-7.4 h 14.72 c 4.07,0 7.37,3.3 7.37,7.4 v 7.3 h 44.17 v -7.3 c 0,-4.1 3.3,-7.4 7.36,-7.4 h 14.73 c 4.06,0 7.36,3.3 7.36,7.4 v 7.3 h 14.72 z m -80.98,117.8 h 29.45 c 4.06,0 7.36,-3.3 7.36,-7.3 h -44.17 c 0,4 3.3,7.3 7.36,7.3 z m 88.35,-7.3 h -44.18 c 0,8.1 -6.59,14.7 -14.72,14.7 h -29.45 c -8.13,0 -14.73,-6.6 -14.73,-14.7 h -44.17 c -4.06,0 -7.36,-3.3 -7.36,-7.4 v -36.8 c 0,-4.1 3.3,-7.4 7.36,-7.4 v -58.9 c 0,-4 3.3,-7.3 7.36,-7.3 h 132.52 c 4.07,0 7.37,3.3 7.37,7.3 v 58.9 c 4.06,0 7.36,3.3 7.36,7.4 v 36.8 c 0,4.1 -3.3,7.4 -7.36,7.4"
         style="fill:#ffffff;fill-opacity:1;fill-rule:nonzero;stroke:none"
         id="path3784"
         inkscape:connector-curvature="0" />
    </g>
    <g
       aria-label="Pelayanan"
       style="font-style:normal;font-variant:normal;font-weight:normal;font-stretch:normal;font-size:16.17854118px;line-height:1.25;font-family:'Avenir LT Std';-inkscape-font-specification:'Avenir LT Std, Normal';font-variant-ligatures:normal;font-variant-caps:normal;font-variant-numeric:normal;font-feature-settings:normal;text-align:start;letter-spacing:0px;word-spacing:0px;writing-mode:lr-tb;text-anchor:start;fill:#000000;fill-opacity:1;stroke:none;stroke-width:1.51673818"
       id="text3826">
      <path
         d="m -249.63954,120.50141 h 1.359 v -5.14477 h 2.29735 c 1.61786,0 3.75343,-0.66332 3.75343,-3.171 0,-2.39442 -1.90907,-3.13864 -4.01228,-3.13864 h -3.3975 z m 1.359,-10.19248 h 2.29735 c 1.359,0 2.29736,0.61479 2.29736,1.89289 0,1.2781 -0.93836,1.89289 -2.29736,1.89289 h -2.29735 z"
         style="stroke-width:1.51673818"
         id="path5293" />
      <path
         d="m -234.45193,118.38202 c -0.59861,0.76039 -1.32664,1.14868 -2.4106,1.14868 -1.37518,0 -2.37825,-1.11632 -2.47532,-2.42678 h 6.11549 v -0.40447 c 0,-2.50767 -1.45607,-3.96374 -3.59164,-3.96374 -2.23264,0 -3.88285,1.63403 -3.88285,3.97992 0,2.20028 1.45607,3.97992 3.83432,3.97992 1.40753,0 2.47531,-0.42064 3.36513,-1.56931 z m -4.88592,-2.34589 c 0.16179,-1.2781 1.08396,-2.13556 2.47532,-2.13556 1.39135,0 2.23264,0.85746 2.28117,2.13556 z"
         style="stroke-width:1.51673818"
         id="path5295" />
      <path
         d="m -231.14114,120.50141 h 1.26192 v -12.23098 h -1.26192 z"
         style="stroke-width:1.51673818"
         id="path5297" />
      <path
         d="m -226.67207,114.72567 c 0.5986,-0.55007 1.43989,-0.8251 2.24881,-0.8251 1.18104,0 1.87671,0.56625 1.87671,1.66639 v 0.2265 h -0.48535 c -1.86054,0 -4.77267,0.1456 -4.77267,2.65328 0,1.47224 1.2781,2.24881 2.81506,2.24881 1.14868,0 1.98996,-0.55007 2.4915,-1.32664 h 0.0324 c 0,0.32357 0,0.79275 0.0809,1.1325 h 1.21339 c -0.0647,-0.38828 -0.11325,-0.87364 -0.11325,-1.31046 v -3.25189 c 0,-2.13556 -0.93836,-3.20335 -3.17099,-3.20335 -1.10015,0 -2.23264,0.37211 -3.00921,1.16486 z m 4.12552,2.13557 v 0.48536 c -0.0324,1.22957 -0.77657,2.28117 -2.23264,2.28117 -0.95453,0 -1.66639,-0.35593 -1.66639,-1.31046 0,-1.01925 1.03543,-1.45607 2.63711,-1.45607 z"
         style="stroke-width:1.51673818"
         id="path5299" />
      <path
         d="m -212.52343,112.92985 h -1.37518 l -2.24882,5.93753 h -0.0323 l -2.34589,-5.93753 h -1.47225 l 3.13864,7.6201 -0.51772,1.42371 c -0.27503,0.74421 -0.58242,1.24575 -1.40753,1.24575 -0.35593,0 -0.63096,-0.0324 -0.88982,-0.12943 l -0.16179,1.10014 c 0.33975,0.16178 0.77657,0.19414 1.1325,0.19414 1.52079,0 2.02232,-0.87364 2.52386,-2.15174 z"
         style="stroke-width:1.51673818"
         id="path5301" />
      <path
         d="m -210.46193,114.72567 c 0.5986,-0.55007 1.43989,-0.8251 2.24881,-0.8251 1.18104,0 1.87671,0.56625 1.87671,1.66639 v 0.2265 h -0.48535 c -1.86054,0 -4.77267,0.1456 -4.77267,2.65328 0,1.47224 1.2781,2.24881 2.81506,2.24881 1.14868,0 1.98996,-0.55007 2.4915,-1.32664 h 0.0324 c 0,0.32357 0,0.79275 0.0809,1.1325 h 1.21339 c -0.0647,-0.38828 -0.11325,-0.87364 -0.11325,-1.31046 v -3.25189 c 0,-2.13556 -0.93836,-3.20335 -3.17099,-3.20335 -1.10015,0 -2.23264,0.37211 -3.00921,1.16486 z m 4.12552,2.13557 v 0.48536 c -0.0324,1.22957 -0.77657,2.28117 -2.23264,2.28117 -0.95453,0 -1.66639,-0.35593 -1.66639,-1.31046 0,-1.01925 1.03543,-1.45607 2.63711,-1.45607 z"
         style="stroke-width:1.51673818"
         id="path5303" />
      <path
         d="m -202.75235,120.50141 h 1.26192 v -3.68871 c 0,-1.7311 0.71186,-2.91213 2.34589,-2.91213 1.18103,0 1.7311,0.79275 1.7311,2.05467 v 4.54617 h 1.26193 v -4.6756 c 0,-1.82817 -0.88982,-3.0901 -2.87978,-3.0901 -1.24575,0 -2.1841,0.69568 -2.52385,1.43989 h -0.0324 c 0,-0.42064 -0.0324,-0.84128 -0.0324,-1.24575 h -1.19721 c 0,0.50154 0.0647,1.10014 0.0647,1.79582 z"
         style="stroke-width:1.51673818"
         id="path5305" />
      <path
         d="m -193.05104,114.72567 c 0.5986,-0.55007 1.43989,-0.8251 2.24881,-0.8251 1.18104,0 1.87672,0.56625 1.87672,1.66639 v 0.2265 h -0.48536 c -1.86053,0 -4.77267,0.1456 -4.77267,2.65328 0,1.47224 1.2781,2.24881 2.81507,2.24881 1.14867,0 1.98996,-0.55007 2.49149,-1.32664 h 0.0324 c 0,0.32357 0,0.79275 0.0809,1.1325 h 1.21339 c -0.0647,-0.38828 -0.11325,-0.87364 -0.11325,-1.31046 v -3.25189 c 0,-2.13556 -0.93835,-3.20335 -3.17099,-3.20335 -1.10014,0 -2.23264,0.37211 -3.00921,1.16486 z m 4.12553,2.13557 v 0.48536 c -0.0324,1.22957 -0.77657,2.28117 -2.23264,2.28117 -0.95454,0 -1.66639,-0.35593 -1.66639,-1.31046 0,-1.01925 1.03542,-1.45607 2.6371,-1.45607 z"
         style="stroke-width:1.51673818"
         id="path5307" />
      <path
         d="m -185.34146,120.50141 h 1.26192 v -3.68871 c 0,-1.7311 0.71186,-2.91213 2.34589,-2.91213 1.18104,0 1.73111,0.79275 1.73111,2.05467 v 4.54617 h 1.26192 v -4.6756 c 0,-1.82817 -0.88982,-3.0901 -2.87978,-3.0901 -1.24574,0 -2.1841,0.69568 -2.52385,1.43989 h -0.0324 c 0,-0.42064 -0.0323,-0.84128 -0.0323,-1.24575 h -1.19722 c 0,0.50154 0.0647,1.10014 0.0647,1.79582 z"
         style="stroke-width:1.51673818"
         id="path5309" />
    </g>
  </g>
</svg>
