<?xml version="1.0" encoding="UTF-8" standalone="no"?>
<!-- Created with Inkscape (http://www.inkscape.org/) -->

<svg
   xmlns:dc="http://purl.org/dc/elements/1.1/"
   xmlns:cc="http://creativecommons.org/ns#"
   xmlns:rdf="http://www.w3.org/1999/02/22-rdf-syntax-ns#"
   xmlns:svg="http://www.w3.org/2000/svg"
   xmlns="http://www.w3.org/2000/svg"
   xmlns:sodipodi="http://sodipodi.sourceforge.net/DTD/sodipodi-0.dtd"
   xmlns:inkscape="http://www.inkscape.org/namespaces/inkscape"
   width="251.48953mm"
   height="59.782017mm"
   viewBox="0 0 251.48953 59.782017"
   version="1.1"
   id="svg4685"
   inkscape:version="0.92.2 (unknown)"
   sodipodi:docname="visi_four.svg">
  <defs
     id="defs4679" />
  <sodipodi:namedview
     id="base"
     pagecolor="#ffffff"
     bordercolor="#666666"
     borderopacity="1.0"
     inkscape:pageopacity="0.0"
     inkscape:pageshadow="2"
     inkscape:zoom="0.49497475"
     inkscape:cx="1216.1843"
     inkscape:cy="-182.44248"
     inkscape:document-units="mm"
     inkscape:current-layer="layer1"
     showgrid="false"
     inkscape:window-width="1920"
     inkscape:window-height="1004"
     inkscape:window-x="1366"
     inkscape:window-y="27"
     inkscape:window-maximized="1" />
  <metadata
     id="metadata4682">
    <rdf:RDF>
      <cc:Work
         rdf:about="">
        <dc:format>image/svg+xml</dc:format>
        <dc:type
           rdf:resource="http://purl.org/dc/dcmitype/StillImage" />
        <dc:title></dc:title>
      </cc:Work>
    </rdf:RDF>
  </metadata>
  <g
     inkscape:label="Layer 1"
     inkscape:groupmode="layer"
     id="layer1"
     transform="translate(536.09719,13.565615)">
    <rect
       style="opacity:1;fill:#ffffff;fill-opacity:1;stroke:#999999;stroke-width:0.20537357;stroke-linecap:round;stroke-linejoin:round;stroke-miterlimit:4;stroke-dasharray:none;stroke-dashoffset:0;stroke-opacity:1"
       id="rect3828"
       width="251.28416"
       height="59.576645"
       x="-535.99451"
       y="-13.462928"
       rx="29.788321"
       ry="29.788321" />
    <rect
       ry="29.788321"
       rx="29.788321"
       y="-13.462928"
       x="-535.99451"
       height="59.576645"
       width="59.576645"
       id="rect3788"
       style="opacity:1;fill:#1c549d;fill-opacity:1;stroke:#916f6f;stroke-width:0.1;stroke-linecap:round;stroke-linejoin:round;stroke-miterlimit:4;stroke-dasharray:none;stroke-dashoffset:0;stroke-opacity:1" />
    <g
       id="g3792"
       transform="matrix(0.14351567,0,0,-0.14351567,-713.58204,2343.545)"
       style="fill:#ffffff">
      <path
         d="m 1457.15,16206.8 5.43,-16.3 -13.21,9.7 -4.52,3.3 -4.52,-3.3 -13.21,-9.7 5.44,16.3 1.71,5.1 -4.27,3.4 -10.65,8.2 h 17.75 l 1.87,5 5.88,15.6 5.88,-15.6 1.87,-5 h 17.75 l -10.65,-8.2 -4.27,-3.4 z m 0.73,24.4 -13.03,34.5 -13.03,-34.5 h -34.75 l 28.23,-22 -13.03,-39.1 32.58,23.9 32.58,-23.9 -13.03,39.1 28.23,22 z m -12.92,-91.8 c -7.81,1.6 -76.44,24.9 -76.44,64.9 0,37.4 10.43,72.8 13.98,86.4 9.69,-4.2 34.69,-13.8 62.47,-13.8 27.79,0 52.78,9.6 62.47,13.8 3.55,-13.6 13.98,-49 13.98,-86.4 0,-40 -68.64,-63.3 -76.46,-64.9 z m 68.67,157.7 c -0.31,1.1 -1.09,2 -2.14,2.4 -1.03,0.5 -2.23,0.5 -3.24,0 -0.3,-0.2 -30.16,-14.9 -63.28,-14.9 -33.05,0 -62.98,14.7 -63.28,14.9 -1.01,0.5 -2.2,0.5 -3.25,0 -1.04,-0.4 -1.82,-1.3 -2.13,-2.4 -0.16,-0.5 -15.44,-46.9 -15.44,-92.8 0,-48.5 79.98,-71.9 83.38,-72.6 0.24,0 0.48,0 0.72,0 0.24,0 0.48,0 0.71,0 3.41,0.7 83.39,24.1 83.39,72.6 0,45.9 -15.29,92.3 -15.44,92.8"
         style="fill:#ffffff;fill-opacity:1;fill-rule:nonzero;stroke:none"
         id="path3790"
         inkscape:connector-curvature="0" />
    </g>
    <g
       aria-label="Keamanan"
       style="font-style:normal;font-variant:normal;font-weight:normal;font-stretch:normal;font-size:16.17854118px;line-height:1.25;font-family:'Avenir LT Std';-inkscape-font-specification:'Avenir LT Std, Normal';font-variant-ligatures:normal;font-variant-caps:normal;font-variant-numeric:normal;font-feature-settings:normal;text-align:start;letter-spacing:0px;word-spacing:0px;writing-mode:lr-tb;text-anchor:start;fill:#000000;fill-opacity:1;stroke:none;stroke-width:1.51673818"
       id="text3834">
      <path
         d="m -434.28167,20.601486 h 1.359 v -5.824275 h 0.19414 l 5.45217,5.824275 h 1.98996 l -5.93753,-6.228738 5.66249,-5.225669 h -1.9576 l -5.20949,4.950634 h -0.19414 V 9.147079 h -1.359 z"
         style="stroke-width:1.51673818"
         id="path5391" />
      <path
         d="m -418.49369,18.482097 c -0.59861,0.760392 -1.32664,1.148677 -2.4106,1.148677 -1.37518,0 -2.37825,-1.11632 -2.47532,-2.426781 h 6.11549 v -0.404464 c 0,-2.507674 -1.45607,-3.963743 -3.59164,-3.963743 -2.23264,0 -3.88285,1.634033 -3.88285,3.979922 0,2.200281 1.45607,3.979921 3.83432,3.979921 1.40753,0 2.47531,-0.420642 3.36513,-1.569319 z m -4.88592,-2.345888 c 0.16179,-1.278105 1.08396,-2.135568 2.47532,-2.135568 1.39135,0 2.23264,0.857463 2.28117,2.135568 z"
         style="stroke-width:1.51673818"
         id="path5393" />
      <path
         d="m -414.60048,14.825747 c 0.59861,-0.55007 1.43989,-0.825106 2.24882,-0.825106 1.18103,0 1.87671,0.566249 1.87671,1.66639 v 0.2265 h -0.48536 c -1.86053,0 -4.77266,0.145607 -4.77266,2.65328 0,1.472248 1.2781,2.248818 2.81506,2.248818 1.14868,0 1.98996,-0.550071 2.4915,-1.326641 h 0.0323 c 0,0.323571 0,0.792749 0.0809,1.132498 h 1.21339 c -0.0647,-0.388285 -0.11325,-0.873641 -0.11325,-1.310462 v -3.251886 c 0,-2.135568 -0.93836,-3.203352 -3.171,-3.203352 -1.10014,0 -2.23264,0.372107 -3.00921,1.164855 z m 4.12553,2.135567 v 0.485357 c -0.0324,1.229569 -0.77657,2.281174 -2.23264,2.281174 -0.95453,0 -1.66639,-0.355928 -1.66639,-1.310462 0,-1.019248 1.03543,-1.456069 2.6371,-1.456069 z"
         style="stroke-width:1.51673818"
         id="path5395" />
      <path
         d="m -406.8909,20.601486 h 1.26193 v -3.688707 c 0,-1.731104 0.71186,-2.912138 2.34589,-2.912138 1.03543,0 1.45607,0.647142 1.45607,2.313532 v 4.287313 h 1.26192 V 16.23328 c 0,-1.358997 0.88982,-2.232639 1.95761,-2.232639 1.47224,0 1.84435,1.019248 1.84435,2.070854 v 4.529991 h 1.26193 v -4.594705 c 0,-1.957604 -0.71186,-3.170995 -2.87978,-3.170995 -1.14868,0 -1.84436,0.550071 -2.39443,1.439891 -0.24268,-0.517714 -0.76039,-1.439891 -2.39442,-1.439891 -1.24575,0 -2.1841,0.695678 -2.52385,1.439891 h -0.0324 c 0,-0.420642 -0.0324,-0.841285 -0.0324,-1.245748 h -1.19721 c 0,0.501535 0.0647,1.100141 0.0647,1.795818 z"
         style="stroke-width:1.51673818"
         id="path5397" />
      <path
         d="m -392.41818,14.825747 c 0.59861,-0.55007 1.43989,-0.825106 2.24882,-0.825106 1.18103,0 1.87671,0.566249 1.87671,1.66639 v 0.2265 h -0.48536 c -1.86053,0 -4.77267,0.145607 -4.77267,2.65328 0,1.472248 1.27811,2.248818 2.81507,2.248818 1.14867,0 1.98996,-0.550071 2.49149,-1.326641 h 0.0324 c 0,0.323571 0,0.792749 0.0809,1.132498 h 1.21339 c -0.0647,-0.388285 -0.11325,-0.873641 -0.11325,-1.310462 v -3.251886 c 0,-2.135568 -0.93835,-3.203352 -3.17099,-3.203352 -1.10014,0 -2.23264,0.372107 -3.00921,1.164855 z m 4.12553,2.135567 v 0.485357 c -0.0324,1.229569 -0.77657,2.281174 -2.23264,2.281174 -0.95453,0 -1.66639,-0.355928 -1.66639,-1.310462 0,-1.019248 1.03543,-1.456069 2.6371,-1.456069 z"
         style="stroke-width:1.51673818"
         id="path5399" />
      <path
         d="m -384.7086,20.601486 h 1.26193 v -3.688707 c 0,-1.731104 0.71185,-2.912138 2.34589,-2.912138 1.18103,0 1.7311,0.792749 1.7311,2.054675 v 4.54617 h 1.26193 v -4.675598 c 0,-1.828175 -0.88982,-3.090102 -2.87978,-3.090102 -1.24575,0 -2.18411,0.695678 -2.52386,1.439891 h -0.0324 c 0,-0.420642 -0.0324,-0.841285 -0.0324,-1.245748 h -1.19721 c 0,0.501535 0.0647,1.100141 0.0647,1.795818 z"
         style="stroke-width:1.51673818"
         id="path5401" />
      <path
         d="m -375.00729,14.825747 c 0.59861,-0.55007 1.43989,-0.825106 2.24882,-0.825106 1.18103,0 1.87671,0.566249 1.87671,1.66639 v 0.2265 h -0.48536 c -1.86053,0 -4.77267,0.145607 -4.77267,2.65328 0,1.472248 1.27811,2.248818 2.81507,2.248818 1.14868,0 1.98996,-0.550071 2.4915,-1.326641 h 0.0324 c 0,0.323571 0,0.792749 0.0809,1.132498 h 1.21339 c -0.0647,-0.388285 -0.11325,-0.873641 -0.11325,-1.310462 v -3.251886 c 0,-2.135568 -0.93836,-3.203352 -3.171,-3.203352 -1.10014,0 -2.23264,0.372107 -3.00921,1.164855 z m 4.12553,2.135567 v 0.485357 c -0.0324,1.229569 -0.77657,2.281174 -2.23264,2.281174 -0.95453,0 -1.66639,-0.355928 -1.66639,-1.310462 0,-1.019248 1.03543,-1.456069 2.6371,-1.456069 z"
         style="stroke-width:1.51673818"
         id="path5403" />
      <path
         d="m -367.29771,20.601486 h 1.26193 v -3.688707 c 0,-1.731104 0.71186,-2.912138 2.34589,-2.912138 1.18103,0 1.7311,0.792749 1.7311,2.054675 v 4.54617 h 1.26193 v -4.675598 c 0,-1.828175 -0.88982,-3.090102 -2.87978,-3.090102 -1.24575,0 -2.18411,0.695678 -2.52385,1.439891 h -0.0324 c 0,-0.420642 -0.0324,-0.841285 -0.0324,-1.245748 h -1.19721 c 0,0.501535 0.0647,1.100141 0.0647,1.795818 z"
         style="stroke-width:1.51673818"
         id="path5405" />
    </g>
  </g>
</svg>
