<?xml version="1.0" encoding="UTF-8" standalone="no"?>
<!-- Created with Inkscape (http://www.inkscape.org/) -->

<svg
   xmlns:dc="http://purl.org/dc/elements/1.1/"
   xmlns:cc="http://creativecommons.org/ns#"
   xmlns:rdf="http://www.w3.org/1999/02/22-rdf-syntax-ns#"
   xmlns:svg="http://www.w3.org/2000/svg"
   xmlns="http://www.w3.org/2000/svg"
   xmlns:sodipodi="http://sodipodi.sourceforge.net/DTD/sodipodi-0.dtd"
   xmlns:inkscape="http://www.inkscape.org/namespaces/inkscape"
   width="251.48953mm"
   height="59.782017mm"
   viewBox="0 0 251.48953 59.782017"
   version="1.1"
   id="svg3842"
   inkscape:version="0.92.2 (unknown)"
   sodipodi:docname="visi_two.svg">
  <defs
     id="defs3836" />
  <sodipodi:namedview
     id="base"
     pagecolor="#ffffff"
     bordercolor="#666666"
     borderopacity="1.0"
     inkscape:pageopacity="0.0"
     inkscape:pageshadow="2"
     inkscape:zoom="0.35"
     inkscape:cx="-273.84479"
     inkscape:cy="-210.84421"
     inkscape:document-units="mm"
     inkscape:current-layer="layer1"
     showgrid="false"
     inkscape:window-width="1366"
     inkscape:window-height="744"
     inkscape:window-x="0"
     inkscape:window-y="24"
     inkscape:window-maximized="1" />
  <metadata
     id="metadata3839">
    <rdf:RDF>
      <cc:Work
         rdf:about="">
        <dc:format>image/svg+xml</dc:format>
        <dc:type
           rdf:resource="http://purl.org/dc/dcmitype/StillImage" />
        <dc:title></dc:title>
      </cc:Work>
    </rdf:RDF>
  </metadata>
  <g
     inkscape:label="Layer 1"
     inkscape:groupmode="layer"
     id="layer1"
     transform="translate(-212.66523,26.54762)">
    <rect
       style="opacity:1;fill:#ffffff;fill-opacity:1;stroke:#999999;stroke-width:0.20537357;stroke-linecap:round;stroke-linejoin:round;stroke-miterlimit:4;stroke-dasharray:none;stroke-dashoffset:0;stroke-opacity:1"
       id="rect3816"
       width="251.28416"
       height="59.576645"
       x="212.76791"
       y="-26.444933"
       rx="29.788321"
       ry="29.788321" />
    <rect
       ry="29.788321"
       rx="29.788321"
       y="-26.444933"
       x="212.76791"
       height="59.576645"
       width="59.576645"
       id="rect3769"
       style="opacity:1;fill:#1c549d;fill-opacity:1;stroke:#916f6f;stroke-width:0.1;stroke-linecap:round;stroke-linejoin:round;stroke-miterlimit:4;stroke-dasharray:none;stroke-dashoffset:0;stroke-opacity:1" />
    <g
       id="g3773"
       transform="matrix(0.35277777,0,0,-0.35277777,432.49416,1368.805)">
      <g
         style="fill:#ffffff;fill-opacity:1"
         id="g3762"
         transform="matrix(0.26135,0,0,0.26135,-806.01186,-417.97278)">
        <path
           d="m 935.68026,16300.062 c 3.18993,19.279 20.03389,26.955 37.24558,33.024 l 0.53909,0.178 c 12.28132,3.392 34.13777,16.423 34.13777,44.627 0,23.742 -9.66439,35.345 -14.85539,41.593 -1.04605,1.428 -2.29025,3.034 -2.00107,2.677 -0.4302,0.893 -2.47411,6.248 0.48554,18.743 1.37987,5.713 -0.96394,8.926 -0.96394,8.926 -3.72902,8.39 -10.66046,24.098 -5.45876,36.594 6.98857,17.494 13.17029,20.885 24.39122,26.062 0.6498,0.178 1.2835,0.535 1.8869,0.892 2.1242,1.429 11.0906,5.177 21.2406,5.177 5.0696,0 9.3431,-0.892 12.7258,-2.856 4.0557,-2.321 7.9561,-6.605 13.8379,-20.707 10.9764,-24.991 4.0217,-38.914 0.5194,-43.734 -2.3152,-3.213 -3.1221,-7.319 -2.2063,-11.246 2.7186,-11.425 0.9496,-16.244 0.498,-17.137 -0.116,-0.178 -1.7547,-2.32 -2.5812,-3.391 -5.1928,-6.248 -14.8572,-17.851 -14.8572,-41.593 0,-28.204 21.8583,-41.235 34.1378,-44.627 l 0.5391,-0.178 c 17.2117,-6.069 34.0556,-13.745 37.2473,-33.024 z m 142.72384,46.412 c 0,0 -24.4787,5.712 -24.4787,31.417 0,22.314 10.0535,30.347 13.9414,35.702 0,0 7.9775,7.14 2.6294,29.632 8.9058,12.317 11.8101,32.488 0.8997,57.301 -6.0782,14.459 -11.4459,22.492 -19.6215,27.133 -6.005,3.392 -12.8222,4.641 -19.4466,4.641 -12.342,0 -24.0503,-4.284 -28.7272,-7.497 -13.66121,-6.069 -22.84721,-11.782 -31.46733,-33.202 -7.47768,-18.208 1.41913,-37.844 5.80685,-47.662 -5.34809,-22.492 2.06176,-30.346 2.06176,-30.346 3.88789,-5.355 13.93965,-13.388 13.93965,-35.702 0,-25.705 -24.47873,-31.417 -24.47873,-31.417 -15.53908,-5.712 -47.98281,-16.423 -47.98281,-53.195 0,0 0,-6.962 6.83148,-6.962 h 191.24573 c 6.8297,0 6.8297,6.962 6.8297,6.962 0,36.772 -32.4437,47.483 -47.9828,53.195 z m 66.8011,14.995 c 0,0 -15.3142,3.391 -15.3142,23.384 0,17.494 5.266,23.563 8.3667,27.847 0,0 5.9354,6.07 1.6583,23.563 3.5059,7.676 10.6301,23.028 4.6466,36.951 -6.8976,16.78 -11.4763,21.243 -22.4045,26.062 -3.7344,2.321 -13.1007,5.713 -22.9739,5.713 -4.6751,0 -9.4216,-0.893 -13.779,-2.856 1.7422,-4.463 3.2096,-8.747 4.2699,-13.032 0.1696,0 0.3499,0.179 0.5248,0.357 2.3295,1.25 5.3552,1.786 8.9843,1.786 7.0617,0 13.9539,-2.5 15.6319,-3.571 0.6033,-0.357 1.2299,-0.714 1.8779,-1.071 6.7208,-2.856 9.2413,-3.927 15.232,-18.564 3.6201,-8.39 -1.528,-19.815 -4.2949,-25.884 -1.2781,-2.678 -1.7083,-6.069 -0.9853,-9.104 1.8654,-7.676 0.9978,-11.246 0.7051,-12.138 -0.041,0 -0.084,-0.179 -0.1232,-0.179 l -0.4588,-0.535 c -3.679,-4.999 -10.539,-14.281 -10.539,-35.345 0,-23.563 15.805,-33.916 24.9856,-36.415 8.7148,-3.214 16.7744,-8.033 18.8237,-21.064 h -29.5412 c 2.6187,-4.106 4.7768,-8.569 6.4066,-13.745 l 30.4641,0.178 c 6.8297,0 6.8297,6.783 6.8297,6.783 0,27.312 -16.5637,36.594 -28.9932,40.879 z m -238.55383,-13.031 c 9.18064,2.499 24.98748,12.852 24.98748,36.415 0,21.064 -6.85826,30.346 -10.53908,35.345 l -0.45877,0.535 c -0.041,0 -0.0839,0.179 -0.12317,0.179 -0.29453,0.892 -1.16922,4.462 0.70332,12.138 0.72296,3.035 0.29454,6.426 -0.98357,9.104 -2.76687,6.069 -7.91681,17.494 -4.30382,25.884 5.99785,14.637 8.51838,15.708 15.23919,18.564 0.64976,0.357 1.27632,0.714 1.87968,1.071 1.67797,1.071 8.56836,3.571 15.63368,3.571 3.39879,0 6.22813,-0.536 8.49517,-1.607 0.58729,2.321 1.29954,4.641 2.27597,6.962 0.83185,2.142 1.70832,3.927 2.57408,5.712 -4.24134,1.964 -8.83076,2.678 -13.34522,2.678 -9.87681,0 -19.24132,-3.392 -22.97748,-5.713 -10.92823,-4.819 -15.50516,-9.282 -22.40269,-26.062 -5.98535,-13.923 1.13888,-29.275 4.64477,-36.951 -4.27704,-17.493 1.66012,-23.563 1.66012,-23.563 3.10067,-4.284 8.36664,-10.353 8.36664,-27.847 0,-19.993 -15.31415,-23.384 -15.31415,-23.384 -12.43126,-4.285 -28.99497,-13.567 -28.99497,-40.879 0,0 0,-6.783 6.83148,-6.783 l 30.45516,-0.178 c 1.6387,5.176 3.79685,9.639 6.41913,13.745 h -29.54656 c 2.04927,13.031 10.11067,17.85 18.82361,21.064"
           style="fill:#ffffff;fill-opacity:1;fill-rule:nonzero;stroke:none;stroke-width:1.78507471"
           id="path3760"
           inkscape:connector-curvature="0" />
      </g>
    </g>
    <g
       aria-label="Sumber Daya Manusia"
       transform="matrix(0.35277777,0,0,0.35277777,1187.587,1368.805)"
       style="font-style:normal;font-variant:normal;font-weight:normal;font-stretch:normal;font-size:45.86043167px;line-height:1.25;font-family:'Avenir LT Std';-inkscape-font-specification:'Avenir LT Std, Normal';font-variant-ligatures:normal;font-variant-caps:normal;font-variant-numeric:normal;font-feature-settings:normal;text-align:start;letter-spacing:0px;word-spacing:0px;writing-mode:lr-tb;text-anchor:start;fill:#000000;fill-opacity:1;stroke:none;stroke-width:4.29941559"
       id="text3820">
      <path
         inkscape:connector-curvature="0"
         d="m -2538.58,-3888.2563 c -2.3848,-2.7975 -5.4574,-3.8064 -9.0804,-3.8064 -5.6867,0 -11.0523,3.1185 -11.0523,9.3555 0,5.4115 3.4853,7.4294 8.0714,8.9428 5.7784,1.9261 8.4842,2.614 8.4842,6.6039 0,3.7147 -3.7606,5.6408 -7.0625,5.6408 -2.7975,0 -5.5491,-1.2382 -6.925,-3.623 l -3.3019,2.7058 c 2.2013,3.2561 6.237,4.4943 9.9976,4.4943 5.8701,0 11.4192,-3.0268 11.4192,-9.4931 0,-6.3746 -4.6778,-8.0256 -9.7224,-9.6307 -5.1822,-1.651 -6.8332,-2.9809 -6.8332,-5.9618 0,-3.8523 3.5312,-5.4574 6.9249,-5.4574 2.3389,0 4.6319,0.9172 5.916,2.9809 z"
         style="stroke-width:4.29941559"
         id="path4506" />
      <path
         inkscape:connector-curvature="0"
         d="m -2513.5567,-3880.2307 h -3.5771 v 10.4561 c 0,4.9071 -2.0179,8.2549 -6.6498,8.2549 -3.3478,0 -4.907,-2.2472 -4.907,-5.8243 v -12.8867 h -3.5772 v 13.2536 c 0,5.1822 2.5224,8.7594 8.1632,8.7594 3.5313,0 6.1912,-1.972 7.1542,-4.0816 h 0.092 c 0,1.1924 0.092,2.3847 0.092,3.5312 h 3.3936 c 0,-1.4216 -0.1834,-3.1185 -0.1834,-5.0905 z"
         style="stroke-width:4.29941559"
         id="path4508" />
      <path
         inkscape:connector-curvature="0"
         d="m -2506.74,-3858.7681 h 3.5771 v -10.4561 c 0,-4.9071 2.0179,-8.2549 6.6498,-8.2549 2.9351,0 4.1274,1.8344 4.1274,6.558 v 12.153 h 3.5771 v -12.3823 c 0,-3.8523 2.5224,-6.3287 5.5492,-6.3287 4.1733,0 5.2281,2.8892 5.2281,5.8701 v 12.8409 h 3.5771 v -13.0243 c 0,-5.5491 -2.0179,-8.9887 -8.1632,-8.9887 -3.2561,0 -5.2281,1.5593 -6.7873,4.0816 -0.6879,-1.4675 -2.1555,-4.0816 -6.7874,-4.0816 -3.5312,0 -6.1911,1.972 -7.1542,4.0816 h -0.092 c 0,-1.1924 -0.092,-2.3847 -0.092,-3.5312 h -3.3937 c 0,1.4216 0.1834,3.1185 0.1834,5.0905 z"
         style="stroke-width:4.29941559"
         id="path4510" />
      <path
         inkscape:connector-curvature="0"
         d="m -2467.8704,-3858.7681 h 3.5771 v -3.8064 h 0.092 c 1.33,2.4306 4.4026,4.3568 8.2549,4.3568 6.0077,0 10.7314,-4.8612 10.7314,-11.2817 0,-6.5122 -4.5402,-11.2817 -11.2817,-11.2817 -3.1185,0 -5.7326,1.3758 -7.7046,3.6689 h -0.092 v -16.3264 h -3.5771 z m 3.5771,-10.7313 c 0,-4.4943 2.9809,-7.9797 7.6128,-7.9797 4.632,0 7.6129,3.4854 7.6129,7.9797 0,4.4943 -2.9809,7.9797 -7.6129,7.9797 -4.6319,0 -7.6128,-3.4854 -7.6128,-7.9797 z"
         style="stroke-width:4.29941559"
         id="path4512" />
      <path
         inkscape:connector-curvature="0"
         d="m -2423.1873,-3864.7758 c -1.6968,2.1555 -3.7605,3.2561 -6.8332,3.2561 -3.8981,0 -6.7415,-3.1644 -7.0166,-6.8791 h 17.3352 v -1.1465 c 0,-7.1083 -4.1274,-11.2358 -10.181,-11.2358 -6.3287,0 -11.0065,4.6319 -11.0065,11.2817 0,6.237 4.1274,11.2817 10.8689,11.2817 3.9899,0 7.0167,-1.1924 9.539,-4.4485 z m -13.8498,-6.6497 c 0.4586,-3.623 3.0726,-6.0536 7.0166,-6.0536 3.944,0 6.3287,2.4306 6.4663,6.0536 z"
         style="stroke-width:4.29941559"
         id="path4514" />
      <path
         inkscape:connector-curvature="0"
         d="m -2414.1234,-3858.7681 h 3.5771 v -10.4561 c 0,-4.9071 1.9261,-7.9798 6.2829,-7.9798 0.642,0 1.3299,0.092 1.9261,0.2752 l 0.2293,-3.623 c -0.5044,-0.1834 -1.0089,-0.2293 -1.4675,-0.2293 -3.5313,0 -6.1912,1.972 -7.1542,4.0816 h -0.092 c 0,-1.1924 -0.092,-2.3847 -0.092,-3.5312 h -3.3936 c 0,1.4216 0.1834,3.1185 0.1834,5.0905 z"
         style="stroke-width:4.29941559"
         id="path4516" />
      <path
         inkscape:connector-curvature="0"
         d="m -2385.2356,-3858.7681 h 12.474 c 6.3746,0 15.9136,-4.265 15.9136,-16.2346 0,-11.9695 -9.539,-16.2346 -15.9136,-16.2346 h -12.474 z m 3.8522,-28.892 h 7.3377 c 7.4294,0 13.0702,3.7605 13.0702,12.6574 0,8.897 -5.6408,12.6575 -13.0702,12.6575 h -7.3377 z"
         style="stroke-width:4.29941559"
         id="path4518" />
      <path
         inkscape:connector-curvature="0"
         d="m -2349.362,-3875.1402 c 1.6968,-1.5593 4.0816,-2.3389 6.3746,-2.3389 3.3478,0 5.3198,1.6051 5.3198,4.7236 v 0.642 h -1.3758 c -5.274,0 -13.5289,0.4128 -13.5289,7.5212 0,4.1733 3.623,6.3746 7.9798,6.3746 3.2561,0 5.6408,-1.5593 7.0625,-3.7606 h 0.092 c 0,0.9172 0,2.2472 0.2293,3.2102 h 3.4395 c -0.1834,-1.1006 -0.321,-2.4764 -0.321,-3.7147 v -9.2179 c 0,-6.0536 -2.6599,-9.0804 -8.9886,-9.0804 -3.1186,0 -6.3288,1.0548 -8.5301,3.302 z m 11.6944,6.0535 v 1.3758 c -0.092,3.4854 -2.2013,6.4664 -6.3288,6.4664 -2.7057,0 -4.7236,-1.009 -4.7236,-3.7147 0,-2.8892 2.9351,-4.1275 7.4753,-4.1275 z"
         style="stroke-width:4.29941559"
         id="path4520" />
      <path
         inkscape:connector-curvature="0"
         d="m -2309.2556,-3880.2307 h -3.8982 l -6.3746,16.8307 h -0.092 l -6.6498,-16.8307 h -4.1733 l 8.897,21.6002 -1.4676,4.0357 c -0.7796,2.1096 -1.6509,3.5313 -3.9898,3.5313 -1.009,0 -1.7886,-0.092 -2.5224,-0.3669 l -0.4586,3.1185 c 0.9631,0.4586 2.2013,0.5503 3.2103,0.5503 4.3109,0 5.7325,-2.4764 7.1542,-6.0994 z"
         style="stroke-width:4.29941559"
         id="path4522" />
      <path
         inkscape:connector-curvature="0"
         d="m -2303.412,-3875.1402 c 1.6968,-1.5593 4.0816,-2.3389 6.3746,-2.3389 3.3478,0 5.3198,1.6051 5.3198,4.7236 v 0.642 h -1.3758 c -5.274,0 -13.5289,0.4128 -13.5289,7.5212 0,4.1733 3.623,6.3746 7.9798,6.3746 3.2561,0 5.6408,-1.5593 7.0625,-3.7606 h 0.092 c 0,0.9172 0,2.2472 0.2293,3.2102 h 3.4395 c -0.1834,-1.1006 -0.321,-2.4764 -0.321,-3.7147 v -9.2179 c 0,-6.0536 -2.6599,-9.0804 -8.9886,-9.0804 -3.1186,0 -6.3288,1.0548 -8.5301,3.302 z m 11.6944,6.0535 v 1.3758 c -0.092,3.4854 -2.2013,6.4664 -6.3288,6.4664 -2.7057,0 -4.7236,-1.009 -4.7236,-3.7147 0,-2.8892 2.9351,-4.1275 7.4753,-4.1275 z"
         style="stroke-width:4.29941559"
         id="path4524" />
      <path
         inkscape:connector-curvature="0"
         d="m -2268.1969,-3858.7681 h 3.8522 v -27.2411 h 0.092 l 11.6486,27.2411 h 2.3389 l 11.6485,-27.2411 h 0.092 v 27.2411 h 3.8522 v -32.4692 h -5.5949 l -11.0983,25.4526 h -0.092 l -11.0065,-25.4526 h -5.7325 z"
         style="stroke-width:4.29941559"
         id="path4526" />
      <path
         inkscape:connector-curvature="0"
         d="m -2225.306,-3875.1402 c 1.6969,-1.5593 4.0816,-2.3389 6.3746,-2.3389 3.3479,0 5.3198,1.6051 5.3198,4.7236 v 0.642 h -1.3758 c -5.2739,0 -13.5288,0.4128 -13.5288,7.5212 0,4.1733 3.623,6.3746 7.9797,6.3746 3.2561,0 5.6409,-1.5593 7.0625,-3.7606 h 0.092 c 0,0.9172 0,2.2472 0.2293,3.2102 h 3.4395 c -0.1835,-1.1006 -0.321,-2.4764 -0.321,-3.7147 v -9.2179 c 0,-6.0536 -2.6599,-9.0804 -8.9887,-9.0804 -3.1185,0 -6.3287,1.0548 -8.53,3.302 z m 11.6944,6.0535 v 1.3758 c -0.092,3.4854 -2.2013,6.4664 -6.3287,6.4664 -2.7058,0 -4.7236,-1.009 -4.7236,-3.7147 0,-2.8892 2.9351,-4.1275 7.4752,-4.1275 z"
         style="stroke-width:4.29941559"
         id="path4528" />
      <path
         inkscape:connector-curvature="0"
         d="m -2203.452,-3858.7681 h 3.5771 v -10.4561 c 0,-4.9071 2.0178,-8.2549 6.6497,-8.2549 3.3479,0 4.9071,2.2471 4.9071,5.8243 v 12.8867 h 3.5771 v -13.2536 c 0,-5.1823 -2.5223,-8.7594 -8.1631,-8.7594 -3.5313,0 -6.1912,1.972 -7.1543,4.0816 h -0.092 c 0,-1.1924 -0.092,-2.3847 -0.092,-3.5312 h -3.3937 c 0,1.4216 0.1835,3.1185 0.1835,5.0905 z"
         style="stroke-width:4.29941559"
         id="path4530" />
      <path
         inkscape:connector-curvature="0"
         d="m -2159.2132,-3880.2307 h -3.5771 v 10.4561 c 0,4.9071 -2.0179,8.2549 -6.6498,8.2549 -3.3478,0 -4.907,-2.2472 -4.907,-5.8243 v -12.8867 h -3.5772 v 13.2536 c 0,5.1822 2.5224,8.7594 8.1632,8.7594 3.5312,0 6.1912,-1.972 7.1542,-4.0816 h 0.092 c 0,1.1924 0.092,2.3847 0.092,3.5312 h 3.3936 c 0,-1.4216 -0.1834,-3.1185 -0.1834,-5.0905 z"
         style="stroke-width:4.29941559"
         id="path4532" />
      <path
         inkscape:connector-curvature="0"
         d="m -2154.7812,-3862.2076 c 2.1095,3.0268 4.7236,3.9899 8.3466,3.9899 4.265,0 8.5759,-1.8803 8.5759,-6.7415 0,-4.3109 -3.2103,-5.6867 -7.0167,-6.4205 -2.8433,-0.5503 -5.4115,-1.3299 -5.4115,-3.1185 0,-2.0179 2.2472,-2.9809 4.2192,-2.9809 2.1095,0 3.6229,1.0548 4.5401,2.5682 l 2.981,-1.972 c -1.4676,-2.7517 -4.2651,-3.8982 -7.2918,-3.8982 -3.9899,0 -8.0256,2.1555 -8.0256,6.3288 0,4.4484 3.4854,5.3198 7.5669,6.237 2.2931,0.5044 4.5861,1.1006 4.5861,3.3937 0,2.3388 -2.4765,3.3019 -4.7236,3.3019 -2.5224,0 -4.0816,-1.1465 -5.5033,-2.8892 z"
         style="stroke-width:4.29941559"
         id="path4534" />
      <path
         inkscape:connector-curvature="0"
         d="m -2132.5489,-3858.7681 h 3.5771 v -21.4626 h -3.5771 z m -0.8255,-29.8551 c 0,1.5134 1.1006,2.614 2.614,2.614 1.5134,0 2.6141,-1.1006 2.6141,-2.614 0,-1.4217 -1.1466,-2.6141 -2.6141,-2.6141 -1.4675,0 -2.614,1.1924 -2.614,2.6141 z"
         style="stroke-width:4.29941559"
         id="path4536" />
      <path
         inkscape:connector-curvature="0"
         d="m -2119.8807,-3875.1402 c 1.6968,-1.5593 4.0815,-2.3389 6.3746,-2.3389 3.3478,0 5.3198,1.6051 5.3198,4.7236 v 0.642 h -1.3758 c -5.274,0 -13.5289,0.4128 -13.5289,7.5212 0,4.1733 3.623,6.3746 7.9798,6.3746 3.256,0 5.6408,-1.5593 7.0625,-3.7606 h 0.092 c 0,0.9172 0,2.2472 0.2293,3.2102 h 3.4395 c -0.1834,-1.1006 -0.321,-2.4764 -0.321,-3.7147 v -9.2179 c 0,-6.0536 -2.6599,-9.0804 -8.9886,-9.0804 -3.1186,0 -6.3288,1.0548 -8.5301,3.302 z m 11.6944,6.0535 v 1.3758 c -0.092,3.4854 -2.2013,6.4664 -6.3288,6.4664 -2.7057,0 -4.7236,-1.009 -4.7236,-3.7147 0,-2.8892 2.9351,-4.1275 7.4753,-4.1275 z"
         style="stroke-width:4.29941559"
         id="path4538" />
    </g>
  </g>
</svg>
